<svg xmlns="http://www.w3.org/2000/svg" width="158" height="50" fill="none"><path fill="#fff" d="M50.285 21.616h2.868l5.932 15.392h-2.89l-1.446-4.074h-6.147l-1.445 4.074h-2.782l5.91-15.392Zm-.95 9.27h4.703l-2.308-6.618h-.065l-2.33 6.618Zm11.151-5.023h2.33v1.509h.043c.345-.647.827-1.107 1.445-1.38a4.7 4.7 0 0 1 2.006-.43c.877 0 1.639.157 2.286.473a4.359 4.359 0 0 1 1.64 1.272c.43.532.754 1.157.97 1.876.215.718.323 1.487.323 2.306 0 .748-.1 1.473-.302 2.177a5.506 5.506 0 0 1-.884 1.876 4.473 4.473 0 0 1-1.488 1.293c-.604.316-1.316.474-2.136.474a5.48 5.48 0 0 1-1.078-.107 4.277 4.277 0 0 1-1.035-.302 4.589 4.589 0 0 1-.928-.539 3.325 3.325 0 0 1-.69-.798h-.043v5.562h-2.459V25.863Zm8.584 5.583c0-.503-.064-.991-.194-1.466a3.851 3.851 0 0 0-.582-1.25 2.852 2.852 0 0 0-.97-.884 2.574 2.574 0 0 0-1.338-.345c-1.035 0-1.819.36-2.35 1.078-.518.719-.777 1.674-.777 2.867 0 .56.064 1.085.194 1.574.144.474.352.884.625 1.228.274.345.597.619.971.82.388.2.834.301 1.337.301.561 0 1.035-.114 1.424-.344.388-.23.704-.525.949-.884.259-.374.438-.79.539-1.25.115-.475.172-.956.172-1.445Zm4.817-5.583h2.33v1.509h.043c.345-.647.827-1.107 1.445-1.38a4.7 4.7 0 0 1 2.006-.43c.877 0 1.639.157 2.286.473a4.357 4.357 0 0 1 1.64 1.272c.43.532.754 1.157.97 1.876.215.718.323 1.487.323 2.306 0 .748-.1 1.473-.302 2.177a5.508 5.508 0 0 1-.884 1.876 4.474 4.474 0 0 1-1.488 1.293c-.604.316-1.316.474-2.135.474-.36 0-.72-.035-1.079-.107a4.277 4.277 0 0 1-1.035-.302 4.59 4.59 0 0 1-.928-.539 3.323 3.323 0 0 1-.69-.798h-.043v5.562h-2.459V25.863Zm8.584 5.583c0-.503-.064-.991-.194-1.466a3.851 3.851 0 0 0-.582-1.25 2.853 2.853 0 0 0-.97-.884 2.573 2.573 0 0 0-1.338-.345c-1.035 0-1.819.36-2.35 1.078-.518.719-.777 1.674-.777 2.867 0 .56.064 1.085.194 1.574.144.474.352.884.625 1.228.274.345.597.619.971.82.388.2.834.301 1.337.301.561 0 1.035-.114 1.424-.344.388-.23.704-.525.949-.884.258-.374.438-.79.539-1.25.115-.475.172-.956.172-1.445Zm13.085.431c0 .59.1 1.092.302 1.51.201.416.481.76.84 1.034.36.259.77.453 1.23.582a6.49 6.49 0 0 0 1.532.172c.589 0 1.092-.064 1.509-.194.417-.143.755-.323 1.014-.538.259-.216.446-.46.561-.733.115-.288.172-.575.172-.863 0-.589-.136-1.02-.409-1.293a2.153 2.153 0 0 0-.863-.604 16.581 16.581 0 0 0-1.92-.56c-.719-.187-1.61-.424-2.674-.711-.661-.173-1.215-.396-1.66-.669a4.155 4.155 0 0 1-1.036-.948 3.462 3.462 0 0 1-.56-1.1 4.7 4.7 0 0 1-.152-1.185c0-.776.158-1.444.475-2.005a4.39 4.39 0 0 1 1.294-1.423 5.476 5.476 0 0 1 1.811-.819 7.658 7.658 0 0 1 2.05-.28c.805 0 1.56.108 2.264.323.719.201 1.345.51 1.877.927.546.417.977.934 1.294 1.552.316.604.474 1.308.474 2.113h-2.696c-.072-.992-.41-1.689-1.014-2.091-.604-.417-1.373-.625-2.307-.625-.317 0-.64.036-.971.107-.33.058-.633.166-.906.324a1.981 1.981 0 0 0-.69.604c-.173.258-.259.581-.259.97 0 .546.165.977.496 1.293.345.302.791.532 1.337.69.058.014.28.079.67.194a101.68 101.68 0 0 1 2.76.733c.474.115.812.2 1.014.258.503.158.941.374 1.315.647s.683.59.928.949c.258.344.445.718.56 1.12.13.403.194.805.194 1.208 0 .862-.179 1.602-.539 2.22a4.414 4.414 0 0 1-1.38 1.487 5.877 5.877 0 0 1-1.963.841 9.049 9.049 0 0 1-2.243.28 9.233 9.233 0 0 1-2.48-.323 5.806 5.806 0 0 1-2.028-.992 4.878 4.878 0 0 1-1.38-1.703c-.345-.704-.525-1.53-.54-2.479h2.697Zm10.966-6.014h1.855v-3.341h2.459v3.341h2.221v1.832h-2.221v5.95c0 .259.007.481.021.668.029.187.079.345.151.474a.85.85 0 0 0 .367.302c.158.058.374.086.647.086h.517a3.2 3.2 0 0 0 .518-.086v1.897l-.798.086a7.242 7.242 0 0 1-.798.043c-.647 0-1.172-.057-1.574-.172-.389-.13-.698-.309-.928-.539a2.066 2.066 0 0 1-.453-.905 7.451 7.451 0 0 1-.129-1.229v-6.575h-1.855v-1.832Zm13.631 11.447c-.891 0-1.689-.144-2.394-.432a5.341 5.341 0 0 1-1.768-1.228 5.406 5.406 0 0 1-1.1-1.854c-.245-.719-.367-1.51-.367-2.371 0-.848.122-1.631.367-2.35a5.406 5.406 0 0 1 1.1-1.854 5.085 5.085 0 0 1 1.768-1.207c.705-.302 1.503-.453 2.394-.453.892 0 1.683.151 2.373.453.704.287 1.294.69 1.768 1.207a5 5 0 0 1 1.1 1.854 6.88 6.88 0 0 1 .389 2.35c0 .862-.13 1.652-.389 2.37a5 5 0 0 1-1.1 1.855 5.068 5.068 0 0 1-1.768 1.228c-.69.288-1.481.431-2.373.431Zm0-1.94c.547 0 1.021-.115 1.424-.345.402-.23.733-.532.992-.906.259-.373.446-.79.561-1.25a5.4 5.4 0 0 0 0-2.867 3.54 3.54 0 0 0-.561-1.25 3.006 3.006 0 0 0-.992-.906c-.403-.23-.877-.345-1.424-.345-.546 0-1.021.115-1.423.345-.403.23-.734.532-.992.906a3.86 3.86 0 0 0-.583 1.25 6.017 6.017 0 0 0 0 2.867c.13.46.324.877.583 1.25.258.374.589.676.992.906.402.23.877.344 1.423.344Zm7.889-9.507h2.308v2.156h.043c.072-.302.209-.597.41-.884.216-.288.467-.546.755-.776.302-.244.633-.438.992-.582.36-.144.726-.216 1.1-.216.288 0 .482.008.582.022l.345.043v2.371a6.108 6.108 0 0 0-.539-.064 3.131 3.131 0 0 0-.517-.044 2.81 2.81 0 0 0-1.187.259 2.577 2.577 0 0 0-.949.733c-.273.316-.488.711-.647 1.186-.158.474-.237 1.02-.237 1.638v5.303h-2.459V25.863Zm15.076 4.592a3.745 3.745 0 0 0-.259-1.121 2.626 2.626 0 0 0-.56-.927 2.439 2.439 0 0 0-.863-.647 2.392 2.392 0 0 0-1.122-.259c-.431 0-.826.08-1.186.237a2.63 2.63 0 0 0-.906.626 3.236 3.236 0 0 0-.604.927 3.41 3.41 0 0 0-.237 1.164h5.737Zm-5.737 1.616c0 .431.058.848.173 1.25.129.403.316.755.56 1.057.245.302.554.546.928.733.374.172.819.258 1.337.258.719 0 1.294-.15 1.725-.452.446-.316.777-.784.993-1.401h2.329a4.612 4.612 0 0 1-.669 1.616 4.804 4.804 0 0 1-1.143 1.208 4.86 4.86 0 0 1-1.51.71 5.692 5.692 0 0 1-1.725.26c-.877 0-1.654-.144-2.329-.432a4.926 4.926 0 0 1-1.726-1.207 5.35 5.35 0 0 1-1.057-1.854 7.746 7.746 0 0 1-.345-2.37c0-.791.122-1.538.367-2.243a5.881 5.881 0 0 1 1.078-1.875 5.216 5.216 0 0 1 1.704-1.294c.662-.316 1.409-.474 2.243-.474.877 0 1.661.187 2.351.56.705.36 1.287.841 1.747 1.445.46.604.791 1.3.992 2.091.216.776.274 1.58.173 2.414h-8.196ZM48.718 16.967a5.51 5.51 0 0 1-1.487-.19 3.385 3.385 0 0 1-1.185-.583 2.706 2.706 0 0 1-.769-.989c-.185-.397-.277-.87-.277-1.419h1.147c.008.406.084.752.227 1.04.15.278.344.506.58.684.243.169.524.291.844.367.319.076.66.114 1.02.114.311 0 .601-.042.87-.127a2.2 2.2 0 0 0 .693-.38 1.767 1.767 0 0 0 .643-1.381c0-.33-.063-.596-.189-.799a1.259 1.259 0 0 0-.504-.481 2.007 2.007 0 0 0-.719-.241 5.527 5.527 0 0 0-.856-.063c-.127 0-.27.004-.429.012a4.4 4.4 0 0 0-.378.013v-.989c.1.017.235.026.403.026h.404c.285 0 .546-.025.78-.076.245-.06.45-.152.618-.279.177-.127.311-.292.404-.494a1.8 1.8 0 0 0 .151-.773c0-.28-.055-.512-.164-.697a1.14 1.14 0 0 0-.428-.444 1.763 1.763 0 0 0-.618-.253 3.286 3.286 0 0 0-.718-.076c-.664 0-1.185.147-1.563.443-.378.287-.6.76-.668 1.42h-1.147c.017-.482.114-.9.29-1.255.185-.363.429-.66.731-.887a3.126 3.126 0 0 1 1.059-.533 4.82 4.82 0 0 1 1.336-.177c.428 0 .827.05 1.197.152.378.093.706.24.983.444.277.202.495.46.655.773.16.304.24.667.24 1.09 0 .245-.042.473-.126.684a2.054 2.054 0 0 1-.34.57 2.19 2.19 0 0 1-1.021.71v.038c.294.06.554.16.78.304a2.018 2.018 0 0 1 .908 1.14c.076.237.114.478.114.723 0 .279-.063.583-.19.913-.125.33-.331.638-.617.925-.277.287-.638.528-1.084.722-.437.186-.97.279-1.6.279Zm6.796-.063a3.3 3.3 0 0 1-.832-.102 1.906 1.906 0 0 1-.693-.304 1.714 1.714 0 0 1-.466-.57 2.011 2.011 0 0 1-.164-.85c0-.371.063-.675.19-.912.125-.236.29-.427.49-.57a2.29 2.29 0 0 1 .706-.342c.27-.076.542-.14.82-.19.294-.06.571-.102.831-.127.27-.034.505-.076.706-.127a1.3 1.3 0 0 0 .48-.24c.117-.11.175-.267.175-.47 0-.236-.046-.426-.138-.57a.853.853 0 0 0-.34-.33 1.319 1.319 0 0 0-.467-.151 3.367 3.367 0 0 0-.504-.038c-.453 0-.831.088-1.134.266-.303.169-.466.494-.492.976h-1.07c.016-.406.1-.748.251-1.027a1.87 1.87 0 0 1 .605-.672c.252-.177.538-.304.857-.38a4.62 4.62 0 0 1 1.046-.114c.294 0 .584.021.87.063.294.043.559.131.794.267.235.126.424.308.567.544.143.237.214.546.214.926v3.37c0 .254.013.44.038.558.034.119.134.178.302.178.076 0 .185-.021.328-.063v.836c-.185.11-.441.165-.769.165-.277 0-.5-.076-.668-.228-.16-.161-.24-.419-.24-.773a2.61 2.61 0 0 1-1.032.773 3.413 3.413 0 0 1-1.26.228Zm.24-.938c.353 0 .655-.047.907-.14.252-.1.458-.224.618-.367.16-.152.277-.313.352-.482a1.26 1.26 0 0 0 .114-.494V13.38c-.134.11-.31.186-.53.229-.218.042-.449.08-.693.114l-.718.101a2.481 2.481 0 0 0-.655.178 1.218 1.218 0 0 0-.48.367c-.117.152-.175.363-.175.634 0 .177.033.33.1.456.076.118.168.215.277.291.118.076.253.131.404.165.151.034.31.05.479.05Zm4.878-5.754h4.462v.95h-3.39v5.602h-1.072v-6.552Zm5.48 0h1.071v.887h.026a1.58 1.58 0 0 1 .831-.786 3.023 3.023 0 0 1 1.248-.253c.504 0 .941.093 1.31.279.379.186.69.44.933.76a3.2 3.2 0 0 1 .567 1.09c.126.414.19.854.19 1.318 0 .473-.064.917-.19 1.33a3.049 3.049 0 0 1-.554 1.078 2.574 2.574 0 0 1-.933.723c-.37.177-.802.266-1.298.266a3.154 3.154 0 0 1-1.121-.216 2.55 2.55 0 0 1-.555-.304c-.168-.135-.31-.3-.428-.494h-.026v3.37h-1.07v-9.048Zm3.088 5.754c.361 0 .668-.072.92-.216.252-.143.453-.333.605-.57.151-.236.26-.507.327-.811.068-.304.101-.617.101-.938 0-.304-.042-.6-.126-.887a2.248 2.248 0 0 0-.365-.786c-.16-.228-.37-.41-.63-.545a1.867 1.867 0 0 0-.895-.202c-.362 0-.668.071-.92.215a1.822 1.822 0 0 0-.618.57 2.39 2.39 0 0 0-.353.786 4.064 4.064 0 0 0 .013 1.838c.076.295.193.557.353.785.168.229.382.414.643.558.26.135.575.203.945.203Zm5.139 3.409c-.126 0-.252-.008-.378-.025a1.773 1.773 0 0 1-.366-.09v-.988l.303.102c.109.034.218.05.327.05.219 0 .395-.05.53-.152.134-.101.252-.249.353-.443l.44-1.103-2.583-6.514h1.21l1.903 5.361h.025l1.828-5.36h1.134l-2.836 7.413a6.208 6.208 0 0 1-.378.811 1.92 1.92 0 0 1-.403.532 1.202 1.202 0 0 1-.492.305 1.72 1.72 0 0 1-.617.101Zm8.154-2.471c-.866 0-1.542-.195-2.03-.583-.487-.389-.751-.942-.793-1.66h1.084c.033.481.21.828.529 1.039.32.21.718.317 1.197.317.513 0 .907-.11 1.185-.33.277-.22.416-.498.416-.836 0-.33-.105-.588-.316-.774-.21-.185-.567-.278-1.07-.278h-.87v-.875h.693c.378 0 .701-.076.97-.228.27-.16.403-.435.403-.824 0-.245-.117-.46-.352-.646-.227-.186-.567-.279-1.021-.279a2.71 2.71 0 0 0-.58.064c-.185.042-.353.11-.504.202a1.21 1.21 0 0 0-.378.368c-.1.152-.164.338-.19.558h-1.083c.025-.406.122-.74.29-1.002.168-.27.378-.481.63-.633.252-.16.538-.275.857-.343.32-.067.643-.101.97-.101.337 0 .652.034.946.101.294.068.55.178.768.33.227.144.404.325.53.545.134.22.201.482.201.786 0 .38-.109.688-.327.925-.21.236-.45.384-.719.443v.026c.152.025.303.076.454.152.151.076.286.181.403.317.118.126.215.287.29.481.076.186.114.406.114.66 0 .354-.076.662-.227.924a1.93 1.93 0 0 1-.605.647 2.803 2.803 0 0 1-.87.38c-.319.084-.65.127-.995.127Zm4.107-6.692h1.07v5.348l3.076-5.348h1.373v6.552h-1.071v-5.348l-3.075 5.348h-1.374v-6.552Zm8.839.951h-2.332v-.95h5.734v.95H96.51v5.601h-1.071v-5.601Zm7.157 5.741c-.521 0-.979-.085-1.374-.254a2.658 2.658 0 0 1-.97-.71 3.092 3.092 0 0 1-.593-1.09 4.816 4.816 0 0 1-.189-1.38c0-.49.076-.943.227-1.357.151-.422.361-.786.63-1.09.277-.304.601-.54.971-.71a2.989 2.989 0 0 1 1.235-.253c.579 0 1.058.122 1.436.368.387.236.694.54.92.912.236.372.395.777.479 1.217.093.439.13.857.114 1.254h-4.878a2.7 2.7 0 0 0 .101.824c.076.254.198.482.366.684.168.195.382.351.643.47.26.118.567.177.919.177.454 0 .824-.106 1.11-.317.294-.211.487-.532.579-.963h1.059c-.143.743-.458 1.301-.945 1.673-.488.363-1.101.545-1.84.545Zm1.751-4.043a2.097 2.097 0 0 0-.176-.723 1.649 1.649 0 0 0-.391-.582 1.642 1.642 0 0 0-.579-.393 1.717 1.717 0 0 0-.731-.152c-.278 0-.53.05-.756.152a1.673 1.673 0 0 0-.568.393 1.914 1.914 0 0 0-.378.595c-.092.22-.147.456-.164.71h3.743Zm6.005-2.649h3.012c.285 0 .558.021.819.063.269.043.508.123.718.241.21.11.378.27.504.482.126.211.189.482.189.811 0 .355-.084.642-.252.862-.168.22-.403.401-.705.545v.012c.378.076.676.254.894.533.227.279.341.638.341 1.077 0 .279-.051.536-.152.773a1.66 1.66 0 0 1-.403.608 2.015 2.015 0 0 1-.63.406 2.21 2.21 0 0 1-.794.14h-3.541v-6.553Zm3.339 5.64c.353 0 .618-.102.794-.304a1.15 1.15 0 0 0 .278-.786c0-.296-.097-.532-.29-.71-.194-.177-.517-.266-.971-.266h-2.092v2.066h2.281Zm-.441-2.953c.462 0 .782-.085.958-.254.185-.169.277-.393.277-.671 0-.27-.088-.478-.264-.621-.177-.152-.5-.228-.971-.228h-1.84v1.774h1.84ZM30.544 24.954a6.843 6.843 0 0 1 3.193-5.72 6.834 6.834 0 0 0-5.406-2.973c-2.275-.242-4.48 1.385-5.64 1.385-1.181 0-2.966-1.36-4.887-1.32-2.53.083-4.83 1.51-6.06 3.758-2.62 4.613-.665 11.392 1.844 15.121 1.256 1.826 2.723 3.866 4.644 3.793 1.878-.08 2.58-1.218 4.848-1.218 2.247 0 2.906 1.218 4.865 1.173 2.015-.033 3.286-1.834 4.499-3.677a15.194 15.194 0 0 0 2.056-4.261c-2.395-1.03-3.952-3.417-3.954-6.06h-.002ZM26.843 13.81A6.79 6.79 0 0 0 28.353 9a6.68 6.68 0 0 0-4.345 2.287 6.456 6.456 0 0 0-1.55 4.63 5.52 5.52 0 0 0 4.385-2.108Z"/></svg>