<svg xmlns="http://www.w3.org/2000/svg" width="158" height="50" fill="none"><path fill="#fff" d="M138.857 41.774c-.325-.081-.568-.081-.893-.243l.406-1.782c.162.081.406.081.649.162.244.081.487.081.731.081 1.054 0 1.866-.648 2.353-2.024l.162-.405-3.895-10.528h2.597l1.947 5.912c.244.728.487 1.538.649 2.348.163-.729.406-1.538.65-2.267l1.947-5.912h2.434l-3.813 10.609c-.325.89-.65 1.7-1.136 2.429-.406.567-.893 1.053-1.461 1.377a4.744 4.744 0 0 1-2.11.486c-.487-.081-.811-.162-1.217-.243Zm-7.708-12.067c0-.567 0-1.457-.081-2.591h2.272c0 .324.081.648.081 1.053 0 .404.081.728.081.971.243-.405.487-.81.811-1.133.244-.324.568-.567.974-.73.406-.161.812-.323 1.217-.323.325 0 .649 0 .974.08l-.325 2.106c-.243-.08-.486-.08-.811-.08-.487 0-1.055.161-1.461.404a7.95 7.95 0 0 0-1.379 1.458v6.721h-2.353v-7.936Zm-1.948 2.916h-6.816c.081 2.186 1.136 3.32 3.165 3.32.487 0 1.055-.081 1.541-.162a5.166 5.166 0 0 0 1.461-.486l.487 1.62a9.514 9.514 0 0 1-3.976.89c-.974 0-1.948-.162-2.84-.648-.731-.404-1.38-1.052-1.704-1.781-.406-.891-.568-1.863-.568-2.834 0-1.053.162-2.025.649-2.997a4.956 4.956 0 0 1 1.704-1.943c.73-.486 1.623-.648 2.515-.648.893 0 1.786.243 2.516.729a4.69 4.69 0 0 1 1.461 1.862c.324.81.486 1.7.486 2.51l-.081.568Zm-2.353-1.54c0-.647-.243-1.376-.649-1.862a2.22 2.22 0 0 0-1.542-.648 2.22 2.22 0 0 0-1.542.648c-.487.486-.73 1.215-.811 1.863h4.544Zm-11.847 3.969v-12.39l2.353-.162v12.147c0 .324.081.648.243.972.163.162.487.324.731.243.243 0 .405-.081.649-.081l.243 1.62c-.243.08-.568.161-.811.242-.325.081-.649.081-.893.081-1.704 0-2.515-.89-2.515-2.672Zm-6.006 0v-12.39l2.354-.162v12.147c0 .324.081.648.243.972.162.162.487.324.73.243.244 0 .406-.081.65-.081l.243 1.7c-.243.081-.568.162-.811.243-.325.081-.65.081-.893.081-1.623-.08-2.516-.971-2.516-2.753Zm-4.218 2.51c-.081-.486-.162-.971-.162-1.457-.406.486-.893.81-1.461 1.133a4.406 4.406 0 0 1-2.029.486c-.568 0-1.136-.08-1.623-.324a3.031 3.031 0 0 1-1.217-1.052c-.324-.567-.487-1.134-.406-1.701 0-.972.406-1.863 1.137-2.43.73-.566 1.947-.89 3.651-.89.649 0 1.298.08 1.866.162v-.162c.082-.73-.162-1.377-.568-1.944-.486-.405-1.054-.648-1.704-.567-.568 0-1.136.081-1.623.243-.486.162-1.054.324-1.541.567l-.406-1.943c.568-.243 1.136-.405 1.704-.567a10.09 10.09 0 0 1 2.191-.243c.811 0 1.542.08 2.272.405.649.324 1.136.81 1.461 1.376.405.81.568 1.782.568 2.673v4.13c0 .405 0 1.053.081 1.943l-2.191.162Zm-1.461-1.943c.487-.243.893-.486 1.217-.891v-1.944c-.568-.08-1.054-.08-1.622-.08-.731-.082-1.461.08-2.029.485-.406.324-.568.81-.568 1.296 0 .405.081.81.406 1.134.324.243.73.405 1.136.405a7.66 7.66 0 0 0 1.46-.405ZM87.33 36.834c-1.055-.567-1.866-1.377-2.353-2.43-.568-1.134-.893-2.51-.812-3.806-.08-1.377.325-2.753.974-4.049.568-1.053 1.542-1.943 2.597-2.51 1.136-.567 2.434-.81 3.732-.81.812 0 1.542.08 2.353.243.73.162 1.38.405 2.03.729l-.65 1.862c-1.136-.567-2.353-.89-3.651-.89-.893 0-1.786.161-2.597.647-.73.405-1.38 1.053-1.704 1.863a7.267 7.267 0 0 0-.65 2.915c0 .89.163 1.782.487 2.672a4.684 4.684 0 0 0 1.461 1.863c.73.486 1.623.729 2.597.648.487 0 .974 0 1.38-.081.486-.081.892-.162 1.297-.324v-2.834h-3.245v-1.863h5.599v5.912c-.812.405-1.623.648-2.516.89-.892.163-1.785.325-2.596.325-1.38-.081-2.678-.325-3.733-.972Zm-14.038-7.208c0-.81 0-1.62-.081-2.591h2.272c.08.405.162.89.162 1.295.811-.971 1.947-1.538 3.165-1.538 1.46 0 2.84.81 3.408 2.186.405.891.568 1.863.568 2.916 0 1.052-.163 2.186-.65 3.158-.405.81-.973 1.538-1.785 1.943-.811.486-1.704.648-2.596.648-.73 0-1.46-.162-2.11-.324v4.292l-2.434.243.08-12.228Zm6.329 5.345c.568-.89.812-1.863.73-2.834.082-.891-.162-1.782-.568-2.51-.405-.487-.973-.81-1.623-.81-.486 0-.892.08-1.298.323a6.127 6.127 0 0 0-1.136.891v5.588c.243.162.568.243.811.243.325.08.65.08.974.08.812.082 1.542-.323 2.11-.971Zm-17.885-4.949c0-.81 0-1.62-.082-2.591h2.272c.082.404.163.89.163 1.295.811-.972 1.947-1.538 3.164-1.538 1.461 0 2.84.81 3.408 2.186.406.89.569 1.863.569 2.915 0 1.053-.163 2.187-.65 3.159-.405.81-.973 1.538-1.785 1.943-.811.486-1.704.648-2.597.648-.73 0-1.46-.162-2.11-.324v4.292l-2.434.243.081-12.228Zm6.329 5.345c.568-.891.811-1.863.73-2.835.081-.89-.162-1.781-.568-2.51-.406-.486-.974-.81-1.623-.81-.487 0-.892.081-1.298.324a6.123 6.123 0 0 0-1.136.89v5.588c.243.162.568.243.811.243.325.081.65.081.974.081.811.081 1.623-.324 2.11-.971Zm-10.921-1.611h-5.599l-1.38 3.725H47.65l5.518-14.01h2.353l5.6 14.01h-2.597l-1.38-3.725Zm-4.95-1.862h4.22l-1.542-4.05c-.243-.566-.405-1.133-.649-1.862-.162.567-.406 1.215-.568 1.782l-1.46 4.13Zm56.594-17.944c.242.162.404.323.566.565.161.242.242.565.242.887 0 .404-.081.727-.323 1.05-.243.322-.485.483-.889.645-.404.161-.808.242-1.374.242h-2.344V10.48h2.263c.728 0 1.293.161 1.697.403.404.242.566.646.566 1.13 0 .403-.081.726-.323 1.049a1.539 1.539 0 0 1-.889.564c.242.081.566.162.808.323Zm-2.748-.726h.647c.242 0 .404-.08.566-.161.161-.08.323-.242.404-.323.08-.08.161-.323.161-.484 0-.242-.081-.484-.323-.565-.242-.08-.485-.161-.808-.161h-.728l.081 1.694Zm1.778 2.824c.243-.161.323-.403.323-.726 0-.323-.161-.646-.404-.807-.242-.161-.646-.242-1.05-.242h-.728v2.098h.809c.485 0 .808-.081 1.05-.323ZM96.181 10.48h4.122l-.081 1.13h-2.667v1.695h2.505v1.049h-2.505v1.855h2.748l-.081 1.13h-4.041V10.48Zm-4.445 1.13h-2.101l.08-1.13h5.496l-.08 1.13H93.11v5.729h-1.374V11.61Zm-4.283 5.729v-3.55c0-.484 0-1.05.08-1.614l-3.232 5.164h-1.616V10.48h1.293v3.711c0 .323 0 .807-.08 1.372l3.15-5.083h1.617v6.858h-1.212Zm-2.667-7.423c-.242-.161-.485-.323-.566-.565-.08-.242-.242-.484-.242-.726h.97c.08.484.404.726.889.726s.808-.242.889-.726h.97a1.3 1.3 0 0 1-.243.726 1.888 1.888 0 0 1-.566.565c-.242.161-.565.242-.97.242-.565 0-.889-.08-1.13-.242Zm-8.728 7.1c-.485-.323-.889-.726-1.131-1.21a4.1 4.1 0 0 1-.405-1.775c0-.726.162-1.372.405-1.856.242-.484.727-.968 1.212-1.29.485-.323 1.212-.404 1.94-.404.727 0 1.292.161 1.777.403.485.323.89.726 1.132 1.21.242.485.404 1.13.404 1.776 0 .726-.162 1.371-.404 1.936-.243.565-.728.968-1.213 1.29-.565.324-1.131.404-1.858.404-.728-.08-1.374-.242-1.859-.484Zm2.99-.968c.323-.242.566-.484.727-.887a3.34 3.34 0 0 0 .243-1.291c0-.484-.08-.888-.243-1.21-.161-.323-.323-.646-.646-.888s-.647-.323-1.132-.323c-.484 0-.808.08-1.13.323-.324.242-.567.484-.728.887a3.338 3.338 0 0 0 0 2.501c.161.404.404.646.646.888.243.242.647.323 1.132.323.485 0 .808-.081 1.131-.323Zm-9.94-5.568h1.94c.889 0 1.616.162 2.02.566.404.403.728.887.728 1.533 0 .484-.081.887-.324 1.21a2.88 2.88 0 0 1-.889.807c-.404.242-.808.242-1.293.242-.242 0-.565 0-.889-.08v2.58h-1.373l.08-6.857Zm2.91 2.986c.242-.242.323-.484.323-.887 0-.404-.08-.646-.323-.807-.243-.162-.566-.242-1.051-.242h-.566v2.259c.243.08.404.08.647.08.485-.08.808-.16.97-.403Zm-3.927 3.873h-1.535l-1.94-2.905h-.808v2.905h-1.374V10.48h1.374v2.824h.647l1.293-1.937c.161-.242.404-.521.404-.484 0 0 .121-.14.485-.322.161-.081.404-.081.646-.081.243 0 .485.08.728.161l-.324 1.05c-.161-.082-.242-.082-.404-.082-.161 0-.242 0-.323.081l-.323.323-1.132 1.694 2.586 3.63Zm-9.893-5.729h-2.101l.08-1.13h5.496l-.081 1.13h-2.02v5.729h-1.374V11.61Zm-7.758 5.406c-.485-.323-.89-.726-1.132-1.21a4.1 4.1 0 0 1-.404-1.775c0-.726.162-1.372.404-1.856.243-.484.728-.968 1.213-1.29.484-.323 1.212-.404 1.94-.404.727 0 1.292.161 1.777.403.485.242.89.726 1.132 1.21.242.485.404 1.13.404 1.776 0 .726-.162 1.371-.404 1.936-.243.565-.728.968-1.213 1.29-.485.324-1.131.404-1.858.404-.728-.08-1.374-.242-1.86-.484Zm2.99-.968c.323-.242.566-.484.727-.887a3.34 3.34 0 0 0 .243-1.291c0-.484-.081-.888-.243-1.21-.161-.323-.323-.646-.646-.888-.324-.242-.647-.323-1.132-.323-.484 0-.808.08-1.131.323-.323.242-.566.484-.727.887a3.34 3.34 0 0 0 0 2.501c.161.404.404.646.646.888.243.242.647.323 1.131.323.485 0 .809-.081 1.132-.323Z"/><path fill="#C8102E" fill-rule="evenodd" d="M31.56 10H18.44C12.26 10 10 12.236 10 18.35v12.977c0 6.114 2.26 8.35 8.44 8.35h13.116c6.18 0 8.444-2.236 8.444-8.35V18.35c0-6.114-2.26-8.35-8.44-8.35Z" clip-rule="evenodd"/><path fill="#fff" d="M15.941 24.841h.795v3.88h-.795v-1.576h-1.797v1.577h-.796v-3.88h.796v1.565h1.797V24.84Zm4.483 2.222c0 .63-.316.967-.891.967-.579 0-.897-.347-.897-.994v-2.193h-.796v2.218c0 1.092.613 1.717 1.682 1.717 1.08 0 1.697-.638 1.697-1.75V24.84h-.795v2.224Zm9.196.446-.89-2.668h-.65l-.89 2.668-.867-2.666h-.847l1.368 3.879h.658l.893-2.548.89 2.548h.664l1.365-3.879h-.825l-.869 2.666Zm3.12-.457h1.448v-.706h-1.447v-.794h2.102v-.707h-2.886v3.875h2.961v-.708h-2.177v-.96Zm3.127 1.664h.785v-3.875h-.785v3.875Zm-13.075-.805-.357.809h-.813l1.728-3.879h.702l1.721 3.879h-.833l-.353-.808h-1.795Zm.296-.698h1.203l-.603-1.388-.6 1.388ZM25 19.902c-2.754 0-4.993-2.216-4.993-4.94h.706c0 2.338 1.924 4.242 4.289 4.242 2.364 0 4.289-1.904 4.289-4.243h.706c-.004 2.725-2.244 4.941-4.997 4.941Z"/></svg>