<svg width="48" height="48" viewBox="0 0 48 48" fill="none" xmlns="http://www.w3.org/2000/svg">
<rect width="48" height="48" rx="24" fill="#141414"/>
<path d="M29.9997 30.8572C30.4731 30.8572 30.8569 31.241 30.8569 31.7144C30.8569 32.1877 30.4731 32.5715 29.9997 32.5715H17.9997C17.5263 32.5715 17.1426 32.1877 17.1426 31.7144C17.1426 31.241 17.5263 30.8572 17.9997 30.8572H29.9997ZM23.9997 13.7144C24.4731 13.7144 24.8569 14.0981 24.8569 14.5715V26.2158L29.3936 21.6797C29.7284 21.345 30.2711 21.345 30.6058 21.6797C30.9405 22.0144 30.9405 22.5571 30.6058 22.8919L24.6058 28.8919C24.2711 29.2266 23.7284 29.2266 23.3936 28.8919L17.3936 22.8919C17.0589 22.5571 17.0589 22.0144 17.3936 21.6797C17.7284 21.345 18.2711 21.345 18.6058 21.6797L23.1426 26.2158V14.5715C23.1426 14.0981 23.5263 13.7144 23.9997 13.7144Z" fill="white"/>
</svg>
