<svg xmlns="http://www.w3.org/2000/svg" width="158" height="50" fill="none"><path fill="#fff" d="M123.944 36.653h2.226V21.787h-2.226v14.866Zm20.061-9.511-2.553 6.445h-.077l-2.649-6.446h-2.399l3.974 9.01-2.266 5.01h2.323l6.124-14.02h-2.477Zm-12.631 7.823c-.731 0-1.747-.364-1.747-1.263 0-1.148 1.265-1.586 2.361-1.586.978 0 1.439.21 2.034.497a2.696 2.696 0 0 1-2.648 2.352Zm.269-8.148c-1.613 0-3.284.708-3.976 2.276l1.978.822c.423-.822 1.209-1.09 2.036-1.09 1.152 0 2.323.688 2.341 1.912v.154c-.403-.23-1.267-.574-2.322-.574-2.131 0-4.301 1.167-4.301 3.346 0 1.99 1.747 3.27 3.705 3.27 1.499 0 2.323-.667 2.842-1.453h.076v1.149h2.151v-5.7c0-2.64-1.977-4.112-4.53-4.112Zm-13.766 2.135h-3.168v-5.097h3.168c1.665 0 2.611 1.375 2.611 2.549 0 1.152-.946 2.548-2.611 2.548Zm-.057-7.165h-5.337v14.866h2.226v-5.631h3.111c2.468 0 4.895-1.783 4.895-4.618 0-2.837-2.427-4.617-4.895-4.617Zm-29.104 13.18c-1.538 0-2.826-1.283-2.826-3.045 0-1.782 1.288-3.085 2.826-3.085 1.52 0 2.711 1.303 2.711 3.085 0 1.762-1.19 3.045-2.71 3.045Zm2.557-6.993h-.076c-.5-.593-1.461-1.13-2.673-1.13-2.539 0-4.865 2.223-4.865 5.078 0 2.834 2.326 5.038 4.865 5.038 1.212 0 2.173-.536 2.673-1.15h.076v.727c0 1.937-1.036 2.97-2.71 2.97-1.366 0-2.213-.976-2.559-1.8l-1.942.805c.558 1.342 2.039 2.988 4.5 2.988 2.616 0 4.828-1.533 4.828-5.268V27.15h-2.117v.824Zm3.654 8.679h2.232V21.786h-2.232v14.867Zm5.52-4.904c-.058-1.955 1.52-2.95 2.653-2.95.886 0 1.636.44 1.885 1.072l-4.538 1.878Zm6.923-1.686c-.424-1.131-1.711-3.22-4.346-3.22-2.615 0-4.787 2.05-4.787 5.06 0 2.835 2.152 5.057 5.036 5.057 2.328 0 3.673-1.418 4.232-2.242l-1.731-1.15c-.577.843-1.365 1.399-2.501 1.399-1.134 0-1.942-.518-2.461-1.532l6.789-2.798-.231-.575Zm-54.083-1.666v2.145h5.153c-.154 1.207-.557 2.088-1.172 2.7-.75.748-1.924 1.571-3.98 1.571-3.175 0-5.655-2.547-5.655-5.709 0-3.16 2.48-5.708 5.654-5.708 1.711 0 2.961.67 3.884 1.532l1.52-1.512c-1.29-1.227-3-2.166-5.404-2.166-4.347 0-8 3.526-8 7.854 0 4.33 3.653 7.856 8 7.856 2.346 0 4.114-.767 5.499-2.204 1.423-1.417 1.866-3.41 1.866-5.019 0-.499-.038-.957-.116-1.34h-7.249Zm13.223 6.57c-1.537 0-2.865-1.264-2.865-3.065 0-1.82 1.328-3.066 2.865-3.066 1.539 0 2.867 1.246 2.867 3.066 0 1.8-1.328 3.065-2.867 3.065Zm0-8.123c-2.807 0-5.095 2.127-5.095 5.058 0 2.911 2.288 5.058 5.095 5.058 2.808 0 5.097-2.147 5.097-5.058 0-2.93-2.289-5.059-5.097-5.059Zm11.118 8.123c-1.538 0-2.865-1.264-2.865-3.065 0-1.82 1.327-3.066 2.865-3.066 1.539 0 2.865 1.246 2.865 3.066 0 1.8-1.326 3.065-2.865 3.065Zm0-8.123c-2.807 0-5.096 2.127-5.096 5.058 0 2.911 2.289 5.058 5.096 5.058 2.808 0 5.097-2.147 5.097-5.058 0-2.93-2.29-5.059-5.097-5.059Zm26.325-10.576c-.468-.318-.788-.787-.961-1.408l1.049-.414c.089.386.264.69.524.911.26.22.566.331.919.331.38 0 .705-.12.975-.357a1.13 1.13 0 0 0 .406-.885c0-.229-.067-.436-.197-.627a1.367 1.367 0 0 0-.541-.45 1.686 1.686 0 0 0-.747-.166h-.613v-.993h.551c.374 0 .684-.102.934-.306.249-.203.374-.477.374-.823a.957.957 0 0 0-.348-.756c-.232-.2-.521-.3-.867-.3-.312 0-.575.093-.789.28a1.467 1.467 0 0 0-.446.662l-1.007-.415c.145-.406.41-.767.794-1.08.384-.315.87-.472 1.459-.472.449 0 .849.088 1.199.264.349.176.622.418.82.725.197.307.295.654.295 1.04 0 .718-.314 1.25-.945 1.594v.063c.354.159.641.39.863.693.221.304.332.673.332 1.109 0 .42-.109.803-.328 1.149a2.271 2.271 0 0 1-.897.812 2.75 2.75 0 0 1-1.277.295 2.67 2.67 0 0 1-1.531-.476Zm-8-7.102h1.132v4.1l-.062 1.428h.062l3.333-5.528h1.297v7.412h-1.132v-4.203l.063-1.428h-.063l-3.384 5.631h-1.246V9.166Zm-6.177 6.346c.27 0 .509-.062.716-.186.208-.124.368-.289.478-.492a1.335 1.335 0 0 0 0-1.294 1.333 1.333 0 0 0-1.193-.688h-1.661v2.66h1.66Zm-2.803-6.346h1.143v2.64h1.578c.463 0 .892.095 1.287.284.394.19.709.466.944.829.236.362.353.785.353 1.267 0 .484-.117.907-.353 1.27-.235.362-.55.64-.944.833-.395.193-.824.29-1.287.29h-2.721V9.165Zm-4.401 1.076h-2.088V9.166h5.306v1.076h-2.077v6.336h-1.141v-6.335Zm-4.247 3.375-.83-2.272-.28-.849h-.063l-.28.849-.83 2.272h2.283Zm-1.796-4.45h1.298l2.813 7.411h-1.256l-.685-1.905h-3.032l-.685 1.905h-1.256l2.803-7.412Zm-4.941 4.109c-.464.407-1.035.61-1.713.61a2.68 2.68 0 0 1-1.22-.274 2.057 2.057 0 0 1-.857-.791c-.207-.346-.311-.753-.311-1.222V9.166h1.152v2.236c0 .45.131.796.394 1.04.263.245.617.368 1.06.368.602 0 1.1-.234 1.495-.704v-2.94h1.132v7.412h-1.132v-3.302Zm-6.614.341-.83-2.272-.28-.849H63.8l-.28.849-.83 2.272h2.283Zm-1.796-4.45h1.298l2.814 7.411h-1.257l-.685-1.905h-3.031l-.686 1.905h-1.256l2.803-7.412Zm-9.281-.001h1.142v3.592h.062l2.959-3.592h1.433v.062l-3.136 3.706 3.302 3.582v.062h-1.495l-3.063-3.395h-.062v3.395h-1.142V9.166Zm-6.203 7.071a3.685 3.685 0 0 1-1.397-1.398 3.896 3.896 0 0 1-.508-1.967c0-.718.17-1.373.508-1.967a3.686 3.686 0 0 1 1.397-1.398A3.892 3.892 0 0 1 49.661 9c1.114 0 2.031.403 2.752 1.211l-.8.777a2.61 2.61 0 0 0-.856-.683 2.478 2.478 0 0 0-1.085-.229c-.506 0-.966.116-1.38.347-.417.232-.745.56-.987.984-.243.425-.364.913-.364 1.465s.121 1.04.364 1.465c.242.425.57.753.986.983a2.78 2.78 0 0 0 1.38.348c.845 0 1.554-.349 2.13-1.046l.82.787a3.81 3.81 0 0 1-1.298.983 3.903 3.903 0 0 1-1.662.352c-.72 0-1.376-.169-1.967-.507Z"/><path fill="#EB3131" d="m22.606 24.327-12.49 13.18.002.008A3.37 3.37 0 0 0 13.376 40c.624 0 1.21-.168 1.712-.462l.04-.023 14.06-8.066-6.581-7.122"/><path fill="#F6B60B" d="m35.243 22.083-.012-.008-6.07-3.498-6.839 6.05 6.863 6.821 6.037-3.463A3.353 3.353 0 0 0 37 25.028a3.35 3.35 0 0 0-1.757-2.944"/><path fill="#5778C5" d="M10.114 12.492a3.273 3.273 0 0 0-.114.863v23.29c0 .299.039.588.115.863l12.921-12.844-12.921-12.172"/><path fill="#3BAD49" d="m22.7 25 6.465-6.426L15.12 10.48a3.396 3.396 0 0 0-1.743-.48 3.373 3.373 0 0 0-3.26 2.489v.003L22.698 25Z"/></svg>