<svg width="120" height="40" fill="none" xmlns="http://www.w3.org/2000/svg"><path d="M118.244 3.71h-3.791v25.742h3.791V3.711z" fill="#fff"/><path fill-rule="evenodd" clip-rule="evenodd" d="M110.355 29.453h-3.791V11.212h3.791v18.241zm-1.895-26.38a2.56 2.56 0 1 1-.001 5.12 2.56 2.56 0 0 1 .001-5.12zm-5.992 26.364h-3.727v-1.995c-1.335 1.513-3.688 2.463-5.9 2.463-5.293 0-9.589-4.297-9.589-9.59 0-5.29 4.296-9.588 9.589-9.588 2.212 0 4.44.834 5.9 2.308v-1.84h3.727v18.242zM92.962 14.56c3.263 0 5.83 2.335 5.83 5.756 0 3.422-2.567 5.777-5.83 5.777-3.264 0-5.744-2.513-5.744-5.777 0-3.263 2.48-5.756 5.744-5.756zM55.427 29.437h-3.726V11.196h3.726v1.274c.828-.778 2.38-1.74 4.532-1.743 2.643 0 4.615 1.113 5.966 2.903 1.477-1.772 3.912-2.903 6.395-2.903 4.656 0 7.83 3.145 7.83 8.045v10.665h-3.726V18.772a4.322 4.322 0 0 0-4.318-4.317 4.322 4.322 0 0 0-4.317 4.317v10.665h-3.727V18.772a4.322 4.322 0 0 0-4.317-4.317 4.322 4.322 0 0 0-4.318 4.317v10.665z" fill="#fff"/><path d="M26.641 20a6.023 6.023 0 0 1-6.016 6.016A6.023 6.023 0 0 1 14.609 20a6.023 6.023 0 0 1 6.016-6.016A6.023 6.023 0 0 1 26.641 20zM20.625 0c-11.027 0-20 8.973-20 20s8.973 20 20 20c4.04 0 7.936-1.203 11.266-3.479l.058-.04-2.695-3.132-.045.03a15.84 15.84 0 0 1-8.584 2.521c-8.768 0-15.9-7.133-15.9-15.9 0-8.768 7.133-15.9 15.9-15.9s15.9 7.133 15.9 15.9a15.94 15.94 0 0 1-.375 3.418c-.502 2.063-1.947 2.696-3.032 2.612-1.092-.089-2.368-.866-2.377-2.769V20c0-5.579-4.537-10.116-10.116-10.116S10.509 14.42 10.509 20s4.537 10.116 10.116 10.116c2.71 0 5.251-1.06 7.168-2.986a6.498 6.498 0 0 0 4.996 2.986c.177.015.358.023.538.023a6.748 6.748 0 0 0 4.06-1.37c1.198-.91 2.093-2.226 2.588-3.808.079-.255.224-.84.225-.843l.004-.022c.291-1.268.421-2.534.421-4.096 0-11.027-8.973-20-20-20" fill="#FF7F22"/></svg>