<svg xmlns="http://www.w3.org/2000/svg" width="58" height="57" fill="#000"><path d="M17.51 1.972v.04h.613v-.614h-.04a.573.573 0 0 1-.573.574Z"/><path d="M20.074 2.012h-2.012V.684c0-.378.307-.684.684-.684h1.328v2.012Z"/><path d="M22.027 0h-2.011v2.012h2.012V0Z"/><path d="M23.979 0h-2.012v2.012h2.012V0Z"/><path d="M25.93 0h-2.012v2.012h2.012V0Z"/><path d="M25.87 2.012V0h1.327c.378 0 .684.306.684.684v1.328h-2.012ZM39.53.575v.863c0 .318.257.574.575.574h.863c.32 0 .575-.258.575-.576v-.86A.577.577 0 0 0 40.966 0h-.861a.575.575 0 0 0-.576.575ZM18.123 3.963h-1.328a.684.684 0 0 1-.684-.684v-.643c0-.378.306-.684.684-.684h1.328v2.011Z"/><path d="M20.074 1.952h-2.012v2.011h2.012V1.952Zm7.806 0v1.327a.684.684 0 0 1-.683.684h-.644a.684.684 0 0 1-.684-.684V1.952h2.012Zm5.856 2.011h-1.328a.684.684 0 0 1-.684-.684v-.643c0-.378.307-.684.684-.684h1.328v2.011Z"/><path d="M35.688 1.952h-2.012v2.011h2.012V1.952Z"/><path d="M37.639 1.952h-2.012v2.011h2.012V1.952Z"/><path d="M37.578 3.963V1.952h1.328c.378 0 .684.306.684.684v1.327h-2.012Zm-17.504-.06h-2.012v2.012h2.012V3.903Zm1.34 1.972v.04h.614V5.3h-.04a.573.573 0 0 1-.574.574Z"/><path d="M21.967 5.915V4.587c0-.378.306-.684.684-.684h.644c.377 0 .684.306.684.684v1.328h-2.012Zm7.804 0V4.587c0-.378.307-.684.684-.684h.644c.378 0 .684.306.684.684v1.328h-2.012Zm9.206-.04v.04h.613V5.3h-.04a.573.573 0 0 1-.573.574Z"/><path d="M39.53 5.915V4.587c0-.378.306-.684.683-.684h.644c.378 0 .684.306.684.684v1.328H39.53ZM18.123 7.866h-2.012V6.538c0-.377.306-.684.684-.684h1.328v2.012Z"/><path d="M20.074 5.854h-2.012v2.012h2.012V5.854Z"/><path d="M22.027 5.854h-2.011v2.012h2.012V5.854Z"/><path d="M23.979 5.854h-2.012v2.012h2.012V5.854Z"/><path d="M25.93 5.854h-2.012v2.012h2.012V5.854Z"/><path d="M25.87 7.866V5.854h1.327c.378 0 .684.307.684.684v1.328h-2.012Zm3.349-.04v.04h.613v-.613h-.04a.573.573 0 0 1-.573.573Z"/><path d="M31.783 5.854h-2.012v2.012h2.012V5.854Zm1.338 1.972v.04h.614v-.613h-.04a.573.573 0 0 1-.574.573Z"/><path d="M35.688 7.866h-2.012V6.538c0-.377.306-.684.684-.684h1.328v2.012Z"/><path d="M37.639 5.854h-2.012v2.012h2.012V5.854Z"/><path d="M39.59 5.854h-2.012v2.012h2.012V5.854Z"/><path d="M39.53 5.854h2.011v1.328a.684.684 0 0 1-.684.684H39.53V5.854ZM18.123 7.806v2.012h-1.328a.684.684 0 0 1-.684-.685V7.806h2.012Z"/><path d="M18.063 7.806h2.011v1.327a.684.684 0 0 1-.684.685h-1.328V7.806Zm7.867 0v2.012h-1.328a.684.684 0 0 1-.684-.684V7.806h2.012Z"/><path d="M27.881 7.806h-2.012v2.012h2.012V7.806Z"/><path d="M29.832 7.806H27.82v2.012h2.012V7.806Z"/><path d="M31.783 7.806h-2.012v2.012h2.012V7.806Z"/><path d="M33.736 7.806h-2.011v2.012h2.011V7.806Z"/><path d="M35.688 7.806h-2.012v2.012h2.012V7.806Z"/><path d="M37.639 7.806h-2.012v2.012h2.012V7.806Z"/><path d="M37.578 7.806h2.012v1.328a.684.684 0 0 1-.684.684h-1.328V7.806ZM27.88 9.757v1.328a.684.684 0 0 1-.683.684h-.644a.684.684 0 0 1-.684-.684V9.757h2.012Zm3.903 0v1.328a.684.684 0 0 1-.684.684h-.644a.684.684 0 0 1-.684-.684V9.757h2.012Zm3.905 0v1.328a.684.684 0 0 1-.684.684h-.644a.684.684 0 0 1-.684-.684V9.757h2.011ZM16.111 13.72v-1.327c0-.378.307-.684.684-.684h.644c.378 0 .684.306.684.684v1.328h-2.012Zm3.905 0v-1.327c0-.378.306-.684.684-.684h.643c.378 0 .684.306.684.684v1.328h-2.011Zm3.349-.04v.041h.614v-.614h-.04a.573.573 0 0 1-.574.574Z"/><path d="M23.918 13.72v-1.327c0-.378.306-.684.684-.684h.644c.378 0 .684.306.684.684v1.328h-2.012Zm3.902 0v-1.327c0-.378.307-.684.684-.684h.644c.378 0 .684.306.684.684v1.328H27.82Zm3.905 0v-1.327c0-.378.306-.684.684-.684h.643c.378 0 .684.306.684.684v1.328h-2.011Zm3.902 0v-1.327c0-.378.306-.684.684-.684h.644c.378 0 .684.306.684.684v1.328h-2.012Zm3.903 0v-1.327c0-.378.306-.684.683-.684h.644c.378 0 .684.306.684.684v1.328H39.53Zm-21.407-.06h-2.012v2.012h2.012V13.66Zm3.904 0h-2.011v2.012h2.012V13.66Z"/><path d="M23.979 13.66h-2.012v2.012h2.012V13.66Z"/><path d="M23.918 13.66h2.012v1.329a.684.684 0 0 1-.684.683h-1.328v-2.011Zm3.35 1.972v.04h.613v-.613h-.04a.573.573 0 0 1-.573.573Z"/><path d="M29.832 13.66H27.82v2.012h2.012V13.66Zm3.904 0v1.328a.684.684 0 0 1-.684.684h-.644a.684.684 0 0 1-.684-.684V13.66h2.012Zm3.903 0h-2.012v2.012h2.012v-2.011Zm3.902 0v1.328a.684.684 0 0 1-.684.684h-.644a.684.684 0 0 1-.684-.684V13.66h2.012Zm-39.09 2.527v.863c0 .318.258.574.576.574h.863c.32 0 .575-.258.575-.576v-.86a.577.577 0 0 0-.577-.576h-.861a.575.575 0 0 0-.576.575Zm5.914 1.436H7.037a.684.684 0 0 1-.684-.684v-.643c0-.378.307-.684.684-.684h1.328v2.011Z"/><path d="M10.319 15.612H8.306v2.012h2.011v-2.012Z"/><path d="M12.27 15.612h-2.012v2.012h2.012v-2.012Z"/><path d="M12.209 17.623v-2.011h1.328c.378 0 .684.306.684.684v1.328h-2.012Zm5.914-2.011v1.328a.684.684 0 0 1-.684.684h-.644a.684.684 0 0 1-.684-.684v-1.328h2.012Zm3.904 0v1.328a.684.684 0 0 1-.684.684H20.7a.684.684 0 0 1-.684-.684v-1.328h2.011Zm5.853 2.011h-2.01v-1.327c0-.378.306-.684.684-.684h1.328v2.011Z"/><path d="M27.82 15.612h2.012v1.328a.684.684 0 0 1-.684.684H27.82v-2.012Zm7.254 1.972v.04h.614v-.614h-.04a.573.573 0 0 1-.574.574Z"/><path d="M37.639 15.612h-2.012v2.012h2.012v-2.012Z"/><path d="M37.578 17.623v-2.011h1.328c.378 0 .684.306.684.684v1.328h-2.012Zm5.914 0h-1.328a.684.684 0 0 1-.684-.684v-.643c0-.378.307-.684.684-.684h1.328v2.011Z"/><path d="M43.434 17.623v-2.011h1.327c.378 0 .684.306.684.684v1.328h-2.011Zm3.349-.039v.04h.614v-.614h-.04a.573.573 0 0 1-.574.574Z"/><path d="M49.348 17.623h-2.012v-1.327c0-.378.306-.684.684-.684h1.328v2.011Z"/><path d="M49.287 17.623v-2.011h1.328c.378 0 .684.306.684.684v1.328h-2.012Zm3.35-.039v.04h.613v-.614h-.04a.573.573 0 0 1-.573.574Z"/><path d="M53.19 17.623v-1.327c0-.378.306-.684.684-.684h.643c.378 0 .684.306.684.684v1.328H53.19ZM.5 18.139v.863c0 .318.258.573.575.573h.863c.32 0 .576-.257.576-.575v-.861a.577.577 0 0 0-.578-.575h-.86a.575.575 0 0 0-.576.575Zm3.902 0v.863c0 .318.258.573.576.573h.863c.32 0 .575-.257.575-.575v-.861a.577.577 0 0 0-.577-.575h-.861a.575.575 0 0 0-.576.575Zm5.917-.575H8.306v2.011h2.011v-2.011Z"/><path d="M10.258 17.564h2.012v1.327a.684.684 0 0 1-.684.684h-1.328v-2.011Zm11.709.575v.863c0 .318.257.573.575.573h.863c.32 0 .576-.257.576-.575v-.861a.577.577 0 0 0-.578-.575h-.86a.575.575 0 0 0-.576.575Zm5.913-.575v1.327a.684.684 0 0 1-.683.684h-.644a.684.684 0 0 1-.684-.684v-1.327h2.012Zm7.808 2.011H34.36a.684.684 0 0 1-.684-.684v-.644c0-.377.306-.684.684-.684h1.328v2.012Z"/><path d="M37.639 17.564h-2.012v2.011h2.012v-2.011Z"/><path d="M37.578 17.564h2.012v1.327a.684.684 0 0 1-.684.684h-1.328v-2.011Zm9.819 2.011h-1.328a.684.684 0 0 1-.684-.684v-.644c0-.377.306-.684.684-.684h1.328v2.012Z"/><path d="M47.336 17.564h2.012v1.327a.684.684 0 0 1-.684.684h-1.328v-2.011Zm5.914 2.011h-1.328a.684.684 0 0 1-.684-.684v-.644c0-.377.306-.684.684-.684h1.328v2.012Z"/><path d="M53.19 17.564h2.01v1.327a.684.684 0 0 1-.684.684H53.19v-2.011ZM1.898 21.486v.04h.614v-.613h-.04a.573.573 0 0 1-.574.573Z"/><path d="M2.451 21.526V20.2c0-.378.306-.684.684-.684h.644c.378 0 .684.306.684.684v1.327H2.451Zm5.914 0H7.037a.684.684 0 0 1-.684-.684V20.2c0-.378.307-.684.684-.684h1.328v2.011Z"/><path d="M10.319 19.515H8.306v2.011h2.011v-2.011Zm3.901 2.011h-1.327a.684.684 0 0 1-.684-.684V20.2c0-.378.306-.684.684-.684h1.328v2.011Z"/><path d="M16.172 19.515H14.16v2.011h2.012v-2.011Z"/><path d="M16.111 21.526v-2.011h1.328c.378 0 .684.306.684.684v1.327h-2.012Zm11.157-.04v.04h.613v-.613h-.04a.573.573 0 0 1-.573.573Z"/><path d="M27.82 21.526V20.2c0-.378.307-.684.684-.684h.644c.378 0 .684.306.684.684v1.327H27.82Zm3.905 0V20.2c0-.378.306-.684.684-.684h.643c.378 0 .684.306.684.684v1.327h-2.011Zm11.767 0h-1.328a.684.684 0 0 1-.684-.684V20.2c0-.378.307-.684.684-.684h1.328v2.011Z"/><path d="M43.434 21.526v-2.011h1.327c.378 0 .684.306.684.684v1.327h-2.011ZM2.512 23.478H.5V22.15c0-.378.306-.684.684-.684h1.328v2.012Z"/><path d="M4.463 21.466H2.451v2.012h2.012v-2.012Z"/><path d="M4.402 23.478v-2.012H5.73c.378 0 .684.306.684.684v1.328H4.402Zm5.917-2.012H8.306v2.012h2.011v-2.012Zm7.804 0v2.012h-1.328a.684.684 0 0 1-.684-.684v-1.328h2.012Z"/><path d="M18.063 23.478v-2.012h1.327c.378 0 .684.306.684.684v1.328h-2.012Zm7.867 0h-2.012V22.15c0-.378.306-.684.684-.684h1.328v2.012Z"/><path d="M27.881 21.466h-2.012v2.012h2.012v-2.012Z"/><path d="M27.82 21.466h2.012v1.328a.684.684 0 0 1-.684.684H27.82v-2.012Zm5.916 0v2.012h-1.328a.684.684 0 0 1-.684-.684v-1.328h2.012Z"/><path d="M35.688 21.466h-2.012v2.012h2.012v-2.012Z"/><path d="M37.639 21.466h-2.012v2.012h2.012v-2.012Z"/><path d="M39.59 21.466h-2.012v2.012h2.012v-2.012Z"/><path d="M39.53 23.478v-2.012h1.327c.378 0 .684.306.684.684v1.328H39.53Zm9.757-1.436v.863c0 .318.258.573.575.573h.864c.32 0 .575-.257.575-.575v-.861a.577.577 0 0 0-.577-.576h-.861a.575.575 0 0 0-.576.576Zm5.856 0v.863c0 .318.257.573.575.573h.863c.32 0 .575-.257.575-.575v-.861a.577.577 0 0 0-.577-.576h-.861a.575.575 0 0 0-.575.576ZM2.512 23.418H.5v2.012h2.012v-2.012ZM5.8 25.39v.04h.614v-.614h-.04a.573.573 0 0 1-.573.573Z"/><path d="M8.365 25.43H6.353v-1.328c0-.378.307-.684.684-.684h1.328v2.012Z"/><path d="M10.319 23.418H8.306v2.012h2.011v-2.012Z"/><path d="M12.27 23.418h-2.012v2.012h2.012v-2.012Z"/><path d="M14.22 23.418h-2.01v2.012h2.012v-2.012Z"/><path d="M14.16 25.43v-2.012h1.328c.378 0 .684.306.684.684v1.328H14.16Zm3.35-.04v.04h.613v-.614h-.04a.573.573 0 0 1-.573.573Z"/><path d="M20.074 23.418h-2.012v2.012h2.012v-2.012Zm5.856 0h-2.012v2.012h2.012v-2.012Z"/><path d="M25.87 23.418h2.011v1.328a.684.684 0 0 1-.684.684h-1.328v-2.012Zm3.349 1.972v.04h.613v-.614h-.04a.573.573 0 0 1-.573.573Z"/><path d="M29.771 25.43v-1.328c0-.378.307-.684.684-.684h.644c.378 0 .684.306.684.684v1.328h-2.012Zm9.819-2.012v1.328a.684.684 0 0 1-.684.684h-.644a.684.684 0 0 1-.684-.684v-1.328h2.012Zm3.902 2.012h-1.328a.684.684 0 0 1-.684-.684v-.644c0-.378.307-.684.684-.684h1.328v2.012Z"/><path d="M43.434 25.43v-2.012h1.327c.378 0 .684.306.684.684v1.328h-2.011Zm9.203-.04v.04h.613v-.614h-.04a.573.573 0 0 1-.573.573Z"/><path d="M53.19 25.43v-1.328c0-.378.306-.684.684-.684h.643c.378 0 .684.306.684.684v1.328H53.19Zm-50.678-.06H.5v2.011h2.012v-2.012Zm3.902 2.01H4.402v-1.327c0-.378.306-.684.684-.684h1.328v2.012Z"/><path d="M6.354 25.37h2.011v1.327a.684.684 0 0 1-.684.684H6.354v-2.012Zm9.818 0v2.011h-1.328a.684.684 0 0 1-.684-.684v-1.328h2.012Z"/><path d="M18.123 25.37h-2.012v2.011h2.012v-2.012Z"/><path d="M20.074 25.37h-2.012v2.011h2.012v-2.012Zm3.291 1.971v.04h.614v-.613h-.04a.573.573 0 0 1-.574.573Z"/><path d="M25.93 25.37h-2.012v2.011h2.012v-2.012Zm3.902 2.01h-1.328a.684.684 0 0 1-.684-.683v-.644c0-.378.306-.684.684-.684h1.328v2.012Z"/><path d="M31.783 25.37h-2.012v2.011h2.012v-2.012Z"/><path d="M33.736 25.37h-2.011v2.011h2.011v-2.012Z"/><path d="M35.688 25.37h-2.012v2.011h2.012v-2.012Z"/><path d="M35.627 27.38v-2.01h1.328c.378 0 .684.306.684.684v1.328h-2.012Zm9.818-2.01v1.327a.684.684 0 0 1-.684.684h-.644a.684.684 0 0 1-.683-.684v-1.328h2.011Zm1.891.575v.863c0 .317.258.573.575.573h.863c.32 0 .576-.258.576-.575v-.861a.577.577 0 0 0-.578-.576h-.86a.575.575 0 0 0-.576.576Zm5.914 1.435h-1.328a.684.684 0 0 1-.684-.683v-.644c0-.378.306-.684.684-.684h1.328v2.012Z"/><path d="M55.201 25.37H53.19v2.011h2.01v-2.012Z"/><path d="M55.143 27.38v-2.01h1.327c.378 0 .684.306.684.684v1.328h-2.011Zm-52.631-.06v1.329a.684.684 0 0 1-.684.684h-.644a.684.684 0 0 1-.684-.684V27.32h2.012Zm3.902 0H4.402v2.013h2.012V27.32Zm1.893 2.012v-1.327c0-.378.306-.684.684-.684h.643c.378 0 .684.306.684.684v1.328h-2.01Zm3.902-1.436v.863c0 .318.258.574.575.574h.864c.32 0 .575-.258.575-.576v-.86a.577.577 0 0 0-.578-.576h-.86a.575.575 0 0 0-.576.575Zm5.914-.576v2.013h-1.328a.684.684 0 0 1-.684-.684V27.32h2.012Z"/><path d="M20.074 27.32h-2.012v2.013h2.012V27.32Z"/><path d="M22.027 27.32h-2.011v2.013h2.012V27.32Z"/><path d="M23.979 27.32h-2.012v2.013h2.012V27.32Z"/><path d="M25.93 27.32h-2.012v2.013h2.012V27.32Z"/><path d="M25.87 29.332v-2.011h1.327c.378 0 .684.306.684.684v1.328h-2.012Zm9.818-2.012h-2.012v2.013h2.012V27.32Zm1.89.576v.863c0 .318.258.574.575.574h.864c.32 0 .575-.258.575-.576v-.86a.577.577 0 0 0-.577-.576h-.861a.575.575 0 0 0-.576.575Zm3.902 1.436v-1.327c0-.378.307-.684.684-.684h.644c.378 0 .684.306.684.684v1.328h-2.011Zm3.905-1.436v.863c0 .318.257.574.575.574h.863c.32 0 .576-.258.576-.576v-.86a.577.577 0 0 0-.578-.576h-.86a.575.575 0 0 0-.576.575Zm3.349 1.396v.04h.614v-.613h-.04a.573.573 0 0 1-.574.573Z"/><path d="M49.287 29.332v-1.327c0-.378.306-.684.684-.684h.644c.378 0 .684.306.684.684v1.328h-2.012Zm7.867-2.012v1.329a.684.684 0 0 1-.684.684h-.643a.684.684 0 0 1-.684-.684V27.32h2.011ZM3.85 31.244v.04h.613v-.614h-.04a.573.573 0 0 1-.573.574Z"/><path d="M6.414 29.273H4.402v2.011h2.012v-2.011Zm3.905 0H8.306v2.011h2.011v-2.011Zm3.288 1.971v.04h.614v-.614h-.04a.573.573 0 0 1-.574.574Z"/><path d="M14.16 31.284v-1.328c0-.377.306-.684.684-.684h.644c.378 0 .684.307.684.684v1.328H14.16Zm7.867-2.011V30.6a.684.684 0 0 1-.684.684H20.7a.684.684 0 0 1-.684-.684v-1.328h2.011Zm5.854 0h-2.012v2.011h2.012v-2.011Z"/><path d="M29.832 29.273H27.82v2.011h2.012v-2.011Z"/><path d="M31.783 29.273h-2.012v2.011h2.012v-2.011Z"/><path d="M33.736 29.273h-2.011v2.011h2.011v-2.011Z"/><path d="M35.688 29.273h-2.012v2.011h2.012v-2.011Z"/><path d="M35.627 31.284v-2.012h1.328c.378 0 .684.307.684.684v1.328h-2.012Zm5.301-.04v.04h.613v-.614h-.04a.573.573 0 0 1-.573.574Z"/><path d="M43.492 29.273h-2.011v2.011h2.011v-2.011Zm5.856 2.011H48.02a.684.684 0 0 1-.684-.684v-.644c0-.377.306-.684.684-.684h1.328v2.012Z"/><path d="M51.299 29.273h-2.012v2.011H51.3v-2.011Z"/><path d="M51.238 31.284v-2.012h1.328c.378 0 .684.307.684.684v1.328h-2.012ZM2.512 33.235H.5v-1.328c0-.377.306-.683.684-.683h1.328v2.011Z"/><path d="M4.463 31.224H2.451v2.012h2.012v-2.012Z"/><path d="M6.414 31.224H4.402v2.012h2.012v-2.012Zm3.904 0v1.327a.684.684 0 0 1-.684.684h-.643a.684.684 0 0 1-.684-.684v-1.327h2.011Zm3.902 2.011h-1.327a.684.684 0 0 1-.684-.684v-.644c0-.377.306-.683.684-.683h1.328v2.011Z"/><path d="M16.172 31.224H14.16v2.012h2.012v-2.012Zm1.338 1.971v.04h.613v-.613h-.04a.573.573 0 0 1-.573.573Z"/><path d="M18.063 33.235v-1.328c0-.377.306-.683.684-.683h.643c.378 0 .684.306.684.683v1.328h-2.012Zm3.351-.04v.04h.614v-.613h-.04a.573.573 0 0 1-.574.573Z"/><path d="M21.967 33.235v-1.328c0-.377.306-.683.684-.683h.644c.377 0 .684.306.684.683v1.328h-2.012Zm5.913-2.011v1.327a.684.684 0 0 1-.683.684h-.644a.684.684 0 0 1-.684-.684v-1.327h2.012Zm5.856 0h-2.011v2.012h2.011v-2.012Z"/><path d="M33.676 31.224h2.012v1.327a.684.684 0 0 1-.684.684h-1.328v-2.011Zm5.301 1.971v.04h.613v-.613h-.04a.573.573 0 0 1-.573.573Z"/><path d="M41.541 33.235h-2.012v-1.328c0-.377.306-.683.684-.683h1.328v2.011Z"/><path d="M43.492 31.224h-2.011v2.012h2.011v-2.012Zm1.893 2.011v-1.328c0-.377.306-.683.684-.683h.644c.377 0 .684.306.684.683v1.328h-2.012Zm3.349-.04v.04h.614v-.613h-.04a.573.573 0 0 1-.574.573Z"/><path d="M51.299 31.224h-2.012v2.012H51.3v-2.012Zm3.844.575v.863c0 .318.257.574.575.574h.863c.32 0 .575-.258.575-.576v-.86a.577.577 0 0 0-.577-.575h-.861a.575.575 0 0 0-.575.575ZM2.512 33.175H.5v2.012h2.012v-2.012Z"/><path d="M4.463 33.175H2.451v2.012h2.012v-2.012Z"/><path d="M6.414 33.175H4.402v2.012h2.012v-2.012Zm9.758 0v2.012h-1.328a.684.684 0 0 1-.684-.684v-1.328h2.012Z"/><path d="M18.123 33.175h-2.012v2.012h2.012v-2.012Z"/><path d="M20.074 33.175h-2.012v2.012h2.012v-2.012Z"/><path d="M22.027 33.175h-2.011v2.012h2.012v-2.012Z"/><path d="M23.979 33.175h-2.012v2.012h2.012v-2.012Z"/><path d="M23.918 35.187v-2.012h1.328c.378 0 .684.306.684.684v1.328h-2.012Zm9.818-2.012v1.328a.684.684 0 0 1-.684.684h-.644a.684.684 0 0 1-.684-.684v-1.328h2.012Zm3.903 2.012H36.31a.684.684 0 0 1-.684-.684v-.644c0-.378.306-.684.684-.684h1.328v2.012Z"/><path d="M39.59 33.175h-2.012v2.012h2.012v-2.012Z"/><path d="M41.541 33.175H39.53v2.012h2.012v-2.012Z"/><path d="M41.48 33.175h2.012v1.328a.684.684 0 0 1-.684.684H41.48v-2.012Zm5.917 0v2.012h-1.328a.684.684 0 0 1-.684-.684v-1.328h2.012Z"/><path d="M49.348 33.175h-2.012v2.012h2.012v-2.012Z"/><path d="M49.287 33.175H51.3v1.328a.684.684 0 0 1-.684.684h-1.328v-2.012ZM2.512 35.127H.5v2.012h2.012v-2.012Z"/><path d="M4.463 35.127H2.451v2.012h2.012v-2.012Z"/><path d="M6.414 35.127H4.402v2.012h2.012v-2.012Zm3.904 2.012H8.307V35.81c0-.378.306-.684.684-.684h1.327v2.012Z"/><path d="M12.27 35.127h-2.012v2.012h2.012v-2.012Z"/><path d="M12.209 37.139v-2.012h1.328c.378 0 .684.306.684.684v1.328h-2.012Zm11.77-2.012v1.328a.684.684 0 0 1-.684.684h-.644a.684.684 0 0 1-.684-.684v-1.328h2.012Zm1.891 2.012V35.81c0-.378.305-.684.683-.684h.644c.378 0 .684.306.684.684v1.328h-2.012Zm3.901-1.437v.863c0 .318.258.574.576.574h.863c.32 0 .575-.258.575-.576v-.86a.577.577 0 0 0-.577-.576h-.861a.575.575 0 0 0-.576.575Zm3.905 0v.863c0 .318.257.574.575.574h.863c.32 0 .576-.258.576-.576v-.86a.577.577 0 0 0-.578-.576h-.86a.575.575 0 0 0-.576.575Zm5.914-.575h-2.012v2.012h2.012v-2.012Zm11.095 1.971v.04h.614v-.613h-.04a.573.573 0 0 1-.574.573Z"/><path d="M51.238 37.139V35.81c0-.378.306-.684.684-.684h.644c.378 0 .684.306.684.684v1.328h-2.012Zm3.905-1.437v.863c0 .318.257.574.575.574h.863c.32 0 .575-.258.575-.576v-.86a.577.577 0 0 0-.577-.576h-.861a.575.575 0 0 0-.575.575ZM2.512 37.078H.5v2.012h2.012v-2.012Z"/><path d="M4.463 37.078H2.451v2.012h2.012v-2.012Z"/><path d="M6.414 37.078H4.402v2.012h2.012v-2.012Zm3.904 0v1.328a.684.684 0 0 1-.684.684h-.643a.684.684 0 0 1-.684-.684v-1.328h2.011Zm9.698 2.012v-1.328c0-.378.306-.684.684-.684h.643c.378 0 .684.306.684.684v1.328h-2.011Zm7.864-2.012v2.012h-1.327a.684.684 0 0 1-.684-.684v-1.328h2.012Z"/><path d="M27.82 39.09v-2.012h1.328c.378 0 .684.306.684.684v1.328H27.82Zm11.77-2.012h-2.012v2.012h2.012v-2.012Z"/><path d="M41.541 37.078H39.53v2.012h2.012v-2.012Z"/><path d="M43.492 37.078h-2.011v2.012h2.011v-2.012Z"/><path d="M43.434 39.09v-2.012h1.327c.378 0 .684.306.684.684v1.328h-2.011Zm3.349-.04v.04h.614v-.613h-.04a.573.573 0 0 1-.574.573Z"/><path d="M49.348 39.09h-2.012v-1.328c0-.378.306-.684.684-.684h1.328v2.012Z"/><path d="M51.299 37.078h-2.012v2.012H51.3v-2.012Z"/><path d="M53.25 37.078h-2.012v2.012h2.012v-2.012ZM2.512 39.03v2.012H1.184a.684.684 0 0 1-.684-.684V39.03h2.012Z"/><path d="M4.463 39.03H2.451v2.012h2.012V39.03Z"/><path d="M6.414 39.03H4.402v2.012h2.012V39.03Z"/><path d="M6.354 41.041V39.03H7.68c.378 0 .684.306.684.684v1.328h-2.01Zm5.916 0h-1.328a.684.684 0 0 1-.684-.683v-.644c0-.378.306-.684.684-.684h1.328v2.011Z"/><path d="M12.209 41.041V39.03h1.328c.378 0 .684.306.684.684v1.328h-2.012Zm3.902 0v-1.327c0-.378.307-.684.684-.684h.644c.378 0 .684.306.684.684v1.328h-2.012Zm3.349-.04v.04h.614v-.613h-.04a.573.573 0 0 1-.573.573Z"/><path d="M22.027 39.03h-2.011v2.012h2.012V39.03Zm1.891.575v.863c0 .318.258.574.575.574h.863c.32 0 .576-.258.576-.576v-.86a.577.577 0 0 0-.578-.576h-.86a.575.575 0 0 0-.576.575Zm7.865 1.436h-2.012v-1.327c0-.378.307-.684.684-.684h1.328v2.011Z"/><path d="M33.736 39.03h-2.011v2.012h2.011V39.03Z"/><path d="M33.676 41.041V39.03h1.328c.377 0 .684.306.684.684v1.328h-2.012Zm3.349-.04v.04h.614v-.613h-.04a.573.573 0 0 1-.574.573Z"/><path d="M39.59 39.03h-2.012v2.012h2.012V39.03Z"/><path d="M41.541 39.03H39.53v2.012h2.012V39.03Z"/><path d="M43.492 39.03h-2.011v2.012h2.011V39.03Z"/><path d="M45.445 39.03h-2.011v2.012h2.011V39.03Z"/><path d="M47.397 39.03h-2.012v2.012h2.012V39.03Z"/><path d="M49.348 39.03h-2.012v2.012h2.012V39.03Z"/><path d="M51.299 39.03h-2.012v2.012H51.3V39.03Z"/><path d="M53.25 39.03h-2.012v2.012h2.012V39.03Zm-35.127 1.951v2.012h-1.328a.684.684 0 0 1-.684-.684v-1.328h2.012Z"/><path d="M20.074 40.981h-2.012v2.012h2.012v-2.012Z"/><path d="M22.027 40.981h-2.011v2.012h2.012v-2.012Z"/><path d="M21.967 42.993v-2.012h1.328c.377 0 .684.307.684.684v1.328h-2.012Zm9.816-2.012h-2.012v2.012h2.012v-2.012Zm3.291 1.972v.04h.614v-.614h-.04a.573.573 0 0 1-.574.574Z"/><path d="M37.639 42.993h-2.012v-1.328c0-.377.306-.684.684-.684h1.328v2.012Z"/><path d="M39.59 40.981h-2.012v2.012h2.012v-2.012Z"/><path d="M41.541 40.981H39.53v2.012h2.012v-2.012Zm7.807 0h-2.012v2.012h2.012v-2.012Z"/><path d="M51.299 40.981h-2.012v2.012H51.3v-2.012Z"/><path d="M53.25 40.981h-2.012v2.012h2.012v-2.012Zm-33.176 1.952v1.327a.684.684 0 0 1-.684.684h-.644a.684.684 0 0 1-.684-.684v-1.327h2.012Zm3.905 0h-2.012v2.011h2.012v-2.011Z"/><path d="M25.93 42.933h-2.012v2.011h2.012v-2.011Z"/><path d="M25.87 44.944v-2.012h1.327c.378 0 .684.307.684.684v1.328h-2.012Zm5.913-2.011v2.011h-1.328a.684.684 0 0 1-.684-.684v-1.327h2.012Z"/><path d="M33.736 42.933h-2.011v2.011h2.011v-2.011Z"/><path d="M35.688 42.933h-2.012v2.011h2.012v-2.011Z"/><path d="M37.639 42.933h-2.012v2.011h2.012v-2.011Z"/><path d="M39.59 42.933h-2.012v2.011h2.012v-2.011Z"/><path d="M41.541 42.933H39.53v2.011h2.012v-2.011Zm1.893.575v.863c0 .318.257.573.575.573h.863c.32 0 .575-.257.575-.575v-.861a.577.577 0 0 0-.577-.575h-.861a.575.575 0 0 0-.575.575Zm5.914-.575h-2.012v2.011h2.012v-2.011Zm3.902 0v2.011h-1.328a.684.684 0 0 1-.684-.684v-1.327h2.012Z"/><path d="M53.19 44.944v-2.012h1.327c.378 0 .684.307.684.684v1.328H53.19Zm-37.079 1.952v-1.328c0-.378.307-.684.684-.684h.644c.378 0 .684.306.684.684v1.328h-2.012Zm5.303-.04v.04h.614v-.614h-.04a.573.573 0 0 1-.574.574Z"/><path d="M23.979 44.884h-2.012v2.012h2.012v-2.012Z"/><path d="M25.93 44.884h-2.012v2.012h2.012v-2.012Zm1.89 2.012v-1.328c0-.378.307-.684.684-.684h.644c.378 0 .684.306.684.684v1.328H27.82Zm5.916-2.012h-2.011v2.012h2.011v-2.012Z"/><path d="M35.688 44.884h-2.012v2.012h2.012v-2.012Zm3.902 0h-2.012v2.012h2.012v-2.012Z"/><path d="M41.541 44.884H39.53v2.012h2.012v-2.012Zm5.242 1.972v.04h.614v-.614h-.04a.573.573 0 0 1-.574.574Z"/><path d="M49.348 44.884h-2.012v2.012h2.012v-2.012Z"/><path d="M49.287 46.896v-2.012h1.328c.378 0 .684.306.684.684v1.328h-2.012Zm5.856-1.436v.863c0 .318.257.573.575.573h.863c.32 0 .575-.257.575-.575v-.861a.577.577 0 0 0-.577-.576h-.861a.575.575 0 0 0-.575.576Zm-37.02 1.376h-2.012v2.012h2.012v-2.012Zm3.904 2.012H20.7a.684.684 0 0 1-.684-.684v-.644c0-.378.307-.684.684-.684h1.328v2.012Z"/><path d="M23.979 46.836h-2.012v2.012h2.012v-2.012Z"/><path d="M23.918 46.836h2.012v1.328a.684.684 0 0 1-.684.684h-1.328v-2.012Zm5.914 0H27.82v2.012h2.012v-2.012Zm3.904 0h-2.011v2.012h2.011v-2.012Z"/><path d="M35.688 46.836h-2.012v2.012h2.012v-2.012Z"/><path d="M37.639 46.836h-2.012v2.012h2.012v-2.012Z"/><path d="M39.59 46.836h-2.012v2.012h2.012v-2.012Z"/><path d="M41.541 46.836H39.53v2.012h2.012v-2.012Z"/><path d="M43.492 46.836h-2.011v2.012h2.011v-2.012Z"/><path d="M45.445 46.836h-2.011v2.012h2.011v-2.012Z"/><path d="M47.397 46.836h-2.012v2.012h2.012v-2.012Z"/><path d="M47.336 46.836h2.012v1.328a.684.684 0 0 1-.684.684h-1.328v-2.012Zm-29.213 1.951v1.328a.684.684 0 0 1-.684.684h-.644a.684.684 0 0 1-.684-.684v-1.328h2.012Zm5.856 0v1.328a.684.684 0 0 1-.684.684h-.644a.684.684 0 0 1-.684-.684v-1.328h2.012Zm5.853 0H27.82V50.8h2.012v-2.012Zm3.904 0h-2.011V50.8h2.011v-2.012Z"/><path d="M47.397 48.787h-2.012V50.8h2.012v-2.012Zm5.24 1.972v.04h.613v-.614h-.04a.573.573 0 0 1-.573.574Z"/><path d="M53.19 50.799V49.47c0-.378.306-.684.684-.684h.643c.378 0 .684.306.684.684v1.328H53.19ZM20.074 52.75h-1.328a.684.684 0 0 1-.684-.684v-.643c0-.378.307-.684.684-.684h1.328v2.012Z"/><path d="M20.016 52.75v-2.01h1.327c.378 0 .684.306.684.684v1.328h-2.011Zm9.816-2.011v1.328a.684.684 0 0 1-.684.684h-.644a.684.684 0 0 1-.684-.684v-1.328h2.012Zm3.904 0v1.328a.684.684 0 0 1-.684.684h-.644a.684.684 0 0 1-.684-.684v-1.328h2.012Zm1.891.575v.863c0 .318.258.574.575.574h.863c.32 0 .576-.258.576-.576v-.86a.577.577 0 0 0-.578-.576h-.86a.575.575 0 0 0-.576.575Zm5.914 1.436h-1.328a.684.684 0 0 1-.684-.684v-.643c0-.378.306-.684.684-.684h1.328v2.012Z"/><path d="M41.48 52.75v-2.01h1.328c.378 0 .684.306.684.684v1.328h-2.011Zm5.917-2.011v2.012h-1.328a.684.684 0 0 1-.684-.684v-1.328h2.012Z"/><path d="M47.336 52.75v-2.01h1.328c.377 0 .684.306.684.684v1.328h-2.012Zm3.349-.04v.04h.614v-.613h-.04a.573.573 0 0 1-.574.573Z"/><path d="M53.25 52.75h-2.012v-1.327c0-.378.306-.684.684-.684h1.328v2.012Z"/><path d="M55.201 50.739H53.19v2.012h2.01v-2.012Z"/><path d="M55.143 52.75v-2.01h1.327c.378 0 .684.306.684.684v1.328h-2.011Zm-39.032.516v.863c0 .318.258.573.576.573h.863c.32 0 .575-.257.575-.575v-.861a.577.577 0 0 0-.577-.576h-.861a.575.575 0 0 0-.576.576Zm13.66 0v.863c0 .318.258.573.576.573h.863c.32 0 .575-.257.575-.575v-.861a.577.577 0 0 0-.577-.576h-.861a.575.575 0 0 0-.576.576Zm7.807-.001v.863c0 .318.258.574.575.574h.864c.32 0 .575-.258.575-.576v-.86a.577.577 0 0 0-.577-.576h-.861a.575.575 0 0 0-.576.575Zm5.914-.575v2.012h-1.328a.684.684 0 0 1-.684-.684V52.69h2.012Z"/><path d="M43.434 54.702V52.69h1.327c.378 0 .684.307.684.684v1.328h-2.011Zm5.914-2.012h-2.012v2.012h2.012V52.69Z"/><path d="M51.299 52.69h-2.012v2.012H51.3V52.69Z"/><path d="M51.238 52.69h2.012v1.328a.684.684 0 0 1-.684.684h-1.328V52.69Zm5.916 0v1.328a.684.684 0 0 1-.684.684h-.643a.684.684 0 0 1-.684-.684V52.69h2.011Zm-37.08 3.963h-1.328a.684.684 0 0 1-.684-.684v-.644c0-.377.307-.684.684-.684h1.328v2.012Z"/><path d="M22.027 54.642h-2.011v2.011h2.012v-2.011Z"/><path d="M23.979 54.642h-2.012v2.011h2.012v-2.011Z"/><path d="M23.918 56.653v-2.011h1.328c.378 0 .684.306.684.683v1.328h-2.012Zm3.902-1.436v.863c0 .318.258.573.576.573h.863c.32 0 .575-.257.575-.575v-.861a.577.577 0 0 0-.577-.575h-.861a.575.575 0 0 0-.576.575Zm11.71 0v.863c0 .318.257.573.575.573h.863c.32 0 .575-.257.575-.575v-.861a.577.577 0 0 0-.577-.575h-.861a.575.575 0 0 0-.576.575Zm7.867 1.436h-1.328a.684.684 0 0 1-.684-.684v-.644c0-.377.306-.684.684-.684h1.328v2.012Z"/><path d="M47.336 54.642h2.012v1.327a.684.684 0 0 1-.684.684h-1.328v-2.011Z"/><path fill-rule="evenodd" d="M12.571 9.2V4.883c0-1.917-.26-2.385-.373-2.497-.112-.112-.58-.373-2.497-.373H5.382c-1.917 0-2.385.26-2.497.373-.112.112-.373.58-.373 2.497V9.2c0 1.917.26 2.385.373 2.497.112.112.58.373 2.497.373h4.319c1.917 0 2.385-.26 2.497-.373.112-.112.373-.58.373-2.497ZM9.701 0c3.943 0 4.882.939 4.882 4.882V9.2c0 3.943-.939 4.882-4.882 4.882H5.382C1.44 14.083.5 13.144.5 9.2V4.88C.5.94 1.439 0 5.382 0h4.319ZM8.467 4.024c1.69 0 2.092.402 2.092 2.092v1.85c0 1.69-.402 2.093-2.092 2.093h-1.85c-1.69 0-2.093-.402-2.093-2.092V6.116c0-1.69.402-2.092 2.092-2.092h1.85ZM55.061 9.2V4.883c0-1.917-.26-2.385-.373-2.497-.112-.112-.58-.373-2.497-.373h-4.319c-1.917 0-2.385.26-2.497.373-.112.112-.373.58-.373 2.497V9.2c0 1.917.261 2.385.373 2.497.112.112.58.373 2.497.373h4.319c1.917 0 2.385-.26 2.497-.373.112-.112.373-.58.373-2.497ZM52.191 0c3.943 0 4.882.939 4.882 4.882V9.2c0 3.943-.939 4.882-4.882 4.882h-4.319c-3.943 0-4.882-.939-4.882-4.882V4.88c0-3.94.94-4.88 4.882-4.88h4.319Zm-1.234 4.024c1.69 0 2.092.402 2.092 2.092v1.85c0 1.69-.402 2.093-2.092 2.093h-1.85c-1.69 0-2.093-.402-2.093-2.092V6.116c0-1.69.402-2.092 2.092-2.092h1.851ZM12.571 51.691v-4.319c0-1.917-.26-2.385-.373-2.497-.112-.112-.58-.373-2.497-.373H5.382c-1.917 0-2.385.26-2.497.373-.112.112-.373.58-.373 2.497v4.319c0 1.917.26 2.385.373 2.497.112.112.58.373 2.497.373h4.319c1.917 0 2.385-.26 2.497-.373.112-.112.373-.58.373-2.497Zm-2.87-9.2c3.943 0 4.882.938 4.882 4.881v4.319c0 3.943-.939 4.882-4.882 4.882H5.382C1.44 56.573.5 55.634.5 51.691v-4.319c0-3.943.939-4.882 4.882-4.882h4.319Zm-1.234 4.023c1.69 0 2.092.402 2.092 2.092v1.851c0 1.69-.402 2.092-2.092 2.092h-1.85c-1.69 0-2.093-.402-2.093-2.092v-1.85c0-1.69.402-2.093 2.092-2.093h1.85Z" clip-rule="evenodd"/></svg>
