<svg width="48" height="48" viewBox="0 0 48 48" fill="none" xmlns="http://www.w3.org/2000/svg">
<rect width="48" height="48" rx="24" fill="#141414"/>
<path fill-rule="evenodd" clip-rule="evenodd" d="M27.6594 22.394C26.723 23.3368 25.4293 23.9199 24.0003 23.9199V23.9195C22.5713 23.9195 21.2777 23.3364 20.3413 22.3937C19.4049 21.4509 18.8258 20.1485 18.8258 18.7098C18.8258 17.271 19.4049 15.9686 20.3413 15.0258C21.2777 14.0831 22.5713 13.5 24.0003 13.5C25.4293 13.5 26.723 14.0831 27.6594 15.0262C28.5957 15.969 29.1749 17.2714 29.1749 18.7101C29.1749 20.1488 28.5957 21.4513 27.6594 22.394ZM24.0003 16.3495C23.353 16.3495 22.7669 16.6137 22.3425 17.041C21.9181 17.4683 21.6557 18.0584 21.6557 18.7101C21.6557 19.3618 21.9185 19.9519 22.3425 20.3792C22.7669 20.8065 23.353 21.0707 24.0003 21.0707C24.6477 21.0707 25.2337 20.8061 25.6581 20.3792C26.0826 19.9519 26.3449 19.3618 26.3449 18.7101C26.3449 18.0584 26.0826 17.4683 25.6581 17.041C25.2337 16.6137 24.6477 16.3495 24.0003 16.3495ZM29.437 23.9411L30.9535 26.0253H30.9532C31.0283 26.1284 31.0117 26.2727 30.913 26.3536C29.6332 27.4005 28.1554 28.0997 26.6074 28.4646L29.538 34.1435C29.6218 34.3059 29.5048 34.5 29.3231 34.5H26.1892C26.0916 34.5 26.0036 34.4415 25.9659 34.3512L24 29.6677L22.0341 34.3512C21.996 34.4415 21.9081 34.5 21.8108 34.5H18.6769C18.4952 34.5 18.3782 34.3059 18.462 34.1435L21.393 28.4642C19.8449 28.0997 18.3671 27.4016 17.087 26.355C16.9883 26.2745 16.9717 26.1298 17.0468 26.0267L18.5641 23.9421C18.6489 23.8254 18.8151 23.8083 18.9241 23.902C20.3531 25.1275 22.1148 25.9249 24.0014 25.9249C25.888 25.9249 27.6445 25.1306 29.0769 23.9014C29.1863 23.8076 29.3521 23.8247 29.437 23.9411Z" fill="white"/>
</svg>
