<svg width="157" height="43" viewBox="0 0 157 43" fill="none" xmlns="http://www.w3.org/2000/svg">
<g clip-path="url(#clip0_2053_13292)">
<path fill-rule="evenodd" clip-rule="evenodd" d="M18.7484 7.82675C15.2656 7.63905 11.8102 8.53467 8.85708 10.3905C5.90397 12.2463 3.59813 14.9712 2.25651 18.1907C0.914897 21.4101 0.603356 24.9661 1.36472 28.3698C2.12607 31.7735 3.92296 34.8579 6.50838 37.1989C9.0938 39.54 12.3408 41.0228 15.8032 41.4436C19.2655 41.8643 22.7732 41.2024 25.8441 39.5488C28.915 37.8951 31.3983 35.3309 32.9528 32.2087C34.5072 29.0864 35.0565 25.5593 34.525 22.1122C33.9382 18.2803 32.049 14.7677 29.1754 12.1657C26.3019 9.56376 22.6195 8.03143 18.7484 7.82675ZM19.5162 33.5446C17.6659 33.8899 15.7539 33.6467 14.049 32.8492C12.344 32.0516 10.9318 30.7399 10.0109 29.0984C9.08992 27.4568 8.7065 25.568 8.91448 23.6972C9.12247 21.8265 9.91142 20.068 11.1704 18.6688C12.4295 17.2697 14.0953 16.3002 15.9338 15.8966C17.7722 15.4931 19.6909 15.6757 21.4202 16.419C23.1495 17.1622 24.6025 18.4286 25.5748 20.0403C26.5472 21.6519 26.9901 23.5277 26.8414 25.404C26.6855 27.3776 25.8833 29.2448 24.5591 30.7164C23.2349 32.188 21.4624 33.1821 19.5162 33.5446ZM42.807 7.26479C42.2223 7.2961 41.6519 7.45738 41.1374 7.73687C40.6229 8.01636 40.1771 8.40705 39.8326 8.8805C39.4881 9.35395 39.2534 9.89825 39.1457 10.4738C39.0381 11.0493 39.06 11.6417 39.2101 12.2077C39.6749 14.0423 41.471 15.2203 43.3571 15.1238L54.3025 14.5639L38.4221 37.9767C38.3046 38.1496 38.2377 38.3517 38.2286 38.5605C38.2196 38.7693 38.2689 38.9765 38.3711 39.1588C38.4732 39.3412 38.6241 39.4915 38.8069 39.5928C38.9896 39.6942 39.197 39.7427 39.4057 39.7328L66.1244 38.366C68.0092 38.2696 69.6771 36.9148 69.9522 35.0419C70.0437 34.4637 70.0052 33.8723 69.8395 33.3108C69.6738 32.7493 69.385 32.2318 68.9941 31.7959C68.6032 31.3601 68.1201 31.0168 67.5799 30.7911C67.0397 30.5654 66.456 30.463 65.8713 30.4912L52.5352 31.1734L68.4034 7.77877C68.522 7.60423 68.5896 7.4001 68.5987 7.18927C68.6077 6.97844 68.5579 6.76925 68.4547 6.58518C68.3515 6.40111 68.199 6.24944 68.0144 6.14718C67.8299 6.04491 67.6204 5.99611 67.4096 6.00625L42.807 7.26479ZM149.578 1.89394C148.704 2.14953 147.943 2.69568 147.422 3.44209C146.901 4.1885 146.65 5.09047 146.711 5.99887L147.381 19.0965L125.294 3.29323C125.12 3.16963 124.916 3.09744 124.703 3.08495C124.491 3.07246 124.279 3.12018 124.093 3.22263C123.907 3.32508 123.753 3.47809 123.649 3.66407C123.546 3.85004 123.497 4.06141 123.509 4.27388L124.892 31.3176C124.924 32.2275 125.266 33.0991 125.861 33.7885C126.455 34.4778 127.268 34.9435 128.163 35.1085C128.744 35.2055 129.339 35.1709 129.905 35.0072C130.47 34.8434 130.992 34.5548 131.431 34.1625C131.871 33.7703 132.216 33.2844 132.443 32.7408C132.669 32.1971 132.771 31.6096 132.74 31.0215L132.064 17.8105L154.151 33.6141C154.324 33.7376 154.529 33.8097 154.741 33.8222C154.954 33.8347 155.165 33.787 155.352 33.6846C155.538 33.5821 155.692 33.4292 155.795 33.2433C155.898 33.0574 155.947 32.8461 155.936 32.6338L154.547 5.49137C154.518 4.90332 154.357 4.32939 154.076 3.81188C153.795 3.29437 153.402 2.84648 152.925 2.50124C152.448 2.156 151.9 1.9222 151.32 1.8171C150.741 1.71199 150.145 1.73825 149.578 1.89394ZM94.6778 11.7436C103.655 11.2844 110.605 15.6852 110.822 19.9286C111.039 24.1719 104.574 29.259 95.5973 29.7182C86.6205 30.1774 79.6705 25.7766 79.4534 21.5332C79.2363 17.2898 85.701 12.2028 94.6778 11.7436ZM94.2754 3.87731C81.2819 4.54199 71.1348 12.6265 71.611 21.9344C72.0871 31.2423 83.0062 38.2491 95.9997 37.5844C108.993 36.9198 119.14 28.8353 118.664 19.5274C118.188 10.2195 107.269 3.21265 94.2754 3.87731Z" fill="white"/>
</g>
<defs>
<clipPath id="clip0_2053_13292">
<rect width="154.289" height="33.7729" fill="white" transform="translate(0.220215 8.68347) rotate(-2.9284)"/>
</clipPath>
</defs>
</svg>
