<svg xmlns="http://www.w3.org/2000/svg" width="158" height="50" fill="none"><path fill="#fff" fill-rule="evenodd" d="M79.716 39.25c-1.393 0-2.623-.37-3.69-1.112-1.051-.755-1.755-1.767-2.11-3.036l2.473-.427c.413.755.874 1.318 1.386 1.689.512.356 1.166.534 1.962.534.74 0 1.344-.164 1.813-.491.483-.342.725-.806.725-1.39 0-.428-.135-.784-.405-1.07a3.057 3.057 0 0 0-1.024-.726c-.412-.185-.96-.392-1.642-.62-.952-.313-1.734-.62-2.346-.92a4.587 4.587 0 0 1-1.578-1.346c-.426-.599-.64-1.368-.64-2.31 0-.869.214-1.624.64-2.265a4.224 4.224 0 0 1 1.77-1.497c.74-.342 1.571-.513 2.495-.513 1.308 0 2.431.342 3.37 1.026.938.684 1.6 1.625 1.983 2.822l-2.431.407c-.27-.613-.647-1.084-1.13-1.412-.484-.327-1.052-.491-1.706-.491-.669 0-1.23.157-1.685.47-.455.314-.683.756-.683 1.326 0 .427.128.784.384 1.069.27.285.612.52 1.024.705.412.185.967.4 1.663.641.953.328 1.735.649 2.346.963.611.313 1.13.77 1.557 1.368.44.598.661 1.36.661 2.287 0 .87-.235 1.632-.704 2.288-.455.656-1.08 1.162-1.876 1.518-.782.342-1.65.513-2.602.513Zm-22.628-.214h3.007l-4.18-5.73c1.123-.284 2.02-.833 2.687-1.646.683-.826 1.024-1.803 1.024-2.929 0-.926-.228-1.746-.682-2.458-.456-.727-1.088-1.29-1.899-1.69-.81-.412-1.727-.62-2.75-.62H48.75v15.073h2.559V33.5h1.813l3.966 5.537Zm-5.779-7.889v-4.831h2.986c.796 0 1.443.228 1.94.684.512.442.768 1.019.768 1.731 0 .713-.256 1.297-.768 1.753-.497.442-1.144.663-1.94.663h-2.986Zm12.626 7.504c.64.4 1.35.599 2.133.599.668 0 1.293-.164 1.876-.492a3.987 3.987 0 0 0 1.408-1.39l.49 1.668h1.834V27.92h-2.452v6.435c0 .784-.235 1.433-.704 1.946-.47.498-1.06.748-1.77.748-.697 0-1.272-.25-1.727-.748-.441-.5-.661-1.148-.661-1.946V27.92h-2.453v6.713c0 .884.178 1.675.533 2.373a4.28 4.28 0 0 0 1.493 1.646Zm29.916.385.213-2.138h-2.281c-.825 0-1.237-.413-1.237-1.24v-5.601h3.305v-2.138h-3.305v-3.207h-1.834l-.619 3.207h-1.812v2.138h1.812v5.601c0 1.098.313 1.939.939 2.523.625.57 1.542.855 2.75.855h2.07Zm7.435.214c-1.138 0-2.161-.242-3.071-.727a5.52 5.52 0 0 1-2.111-2.052c-.498-.884-.747-1.882-.747-2.993 0-1.112.25-2.103.747-2.972a5.323 5.323 0 0 1 2.11-2.053c.91-.498 1.934-.748 3.072-.748 1.137 0 2.154.25 3.049.748a5.141 5.141 0 0 1 2.111 2.053c.512.87.768 1.86.768 2.972 0 1.111-.256 2.109-.768 2.993a5.323 5.323 0 0 1-2.111 2.052c-.895.485-1.912.727-3.049.727Zm0-2.245c.995 0 1.805-.32 2.431-.962.625-.655.938-1.51.938-2.565s-.313-1.903-.938-2.545c-.626-.655-1.436-.983-2.431-.983-.995 0-1.806.328-2.431.983-.626.642-.939 1.49-.939 2.545 0 1.054.313 1.91.939 2.565.625.642 1.436.962 2.431.962Zm10.107-9.086h-1.834v11.117h2.453v-6.563c0-1.468.725-2.202 2.175-2.202h1.407l-.213-2.352h-.469c-.697 0-1.294.121-1.791.363-.484.243-.903.656-1.258 1.24l-.47-1.603Zm16.482 5.43c0 .214-.014.478-.043.791h-8.914c.114.87.47 1.568 1.067 2.096.597.513 1.357.77 2.281.77.626 0 1.188-.122 1.685-.364.512-.243.903-.57 1.173-.984l2.303.385c-.398 1.026-1.087 1.817-2.068 2.373-.967.556-2.048.834-3.242.834-1.109 0-2.104-.242-2.985-.727a5.45 5.45 0 0 1-2.048-2.052c-.483-.884-.725-1.882-.725-2.993 0-1.112.242-2.103.725-2.972a5.255 5.255 0 0 1 2.048-2.053c.881-.498 1.876-.748 2.985-.748s2.097.25 2.964.748a5.114 5.114 0 0 1 2.048 2.032c.497.855.746 1.81.746 2.864Zm-5.758-3.506c-.739 0-1.386.214-1.94.642-.541.427-.91 1.004-1.109 1.731h6.141c-.213-.712-.597-1.283-1.151-1.71-.54-.442-1.187-.663-1.941-.663Z" clip-rule="evenodd"/><path fill="#fff" d="M48.75 19.739v-3.394h.26a.99.99 0 0 0 .672-.236c.182-.166.335-.452.46-.858.132-.414.236-.986.31-1.715l.473-4.786h5.43v7.595h1.304v3.37h-1.305v-2.201h-6.3v2.225H48.75Zm2.224-3.394h4.039V9.92H52.13l-.36 3.691c-.075.755-.175 1.335-.299 1.74-.116.407-.281.718-.497.933v.062Zm10.716 1.33c-.613 0-1.152-.14-1.615-.422a2.772 2.772 0 0 1-1.07-1.194c-.248-.522-.372-1.135-.372-1.84 0-.695.124-1.3.373-1.814.248-.522.605-.92 1.069-1.194.463-.281 1.002-.422 1.615-.422s1.147.14 1.603.422c.464.274.82.672 1.068 1.194.249.514.373 1.119.373 1.815 0 .704-.124 1.317-.373 1.84a2.772 2.772 0 0 1-1.068 1.193c-.456.282-.99.422-1.603.422Zm0-1.094c.538 0 .96-.207 1.267-.621.307-.423.46-1.003.46-1.74 0-.73-.153-1.302-.46-1.716-.306-.414-.729-.621-1.267-.621-.539 0-.961.207-1.268.621-.306.415-.46.986-.46 1.716 0 .737.154 1.317.46 1.74.307.414.73.621 1.268.621Zm7.4 1.094c-.62 0-1.163-.14-1.627-.422a2.772 2.772 0 0 1-1.069-1.194c-.248-.522-.373-1.13-.373-1.827 0-.696.125-1.305.373-1.827.249-.522.6-.92 1.056-1.194.464-.281 1.011-.422 1.64-.422.696 0 1.284.17 1.765.51.489.33.808.807.957 1.429h-1.33c-.273-.564-.725-.845-1.354-.845-.564 0-1.002.207-1.317.621-.307.415-.46.99-.46 1.728s.153 1.314.46 1.728c.314.414.758.621 1.33.621.347 0 .65-.082.906-.248.265-.174.44-.41.522-.709h1.33c-.15.638-.48 1.14-.994 1.504-.506.365-1.11.547-1.814.547Zm6.919-.161h-1.28v-5.47H72.59V10.95h5.555v1.094h-2.137v5.47Zm7.797-6.564h1.305l-2.41 7.061c-.183.53-.377.937-.585 1.218-.207.282-.463.48-.77.597-.306.116-.712.174-1.218.174h-.497v-1.131h.535c.273 0 .488-.03.646-.087a.802.802 0 0 0 .385-.299c.1-.14.203-.352.31-.634l.063-.174-2.684-6.725h1.379l1.876 5.01h.062l1.603-5.01Zm3.934 6.564h-1.28V10.95h5.368v6.564h-1.28v-5.47H87.74v5.47Zm10.332-3.879V10.95h1.28v6.564h-1.28v-2.785h-2.907v2.785h-1.28V10.95h1.28v2.685h2.907Zm6.018 4.04c-.613 0-1.151-.14-1.615-.422a2.775 2.775 0 0 1-1.069-1.194c-.248-.522-.372-1.135-.372-1.84 0-.695.124-1.3.372-1.814a2.69 2.69 0 0 1 1.069-1.194c.464-.281 1.002-.422 1.615-.422s1.148.14 1.603.422c.464.274.82.672 1.069 1.194.248.514.373 1.119.373 1.815 0 .704-.125 1.317-.373 1.84a2.775 2.775 0 0 1-1.069 1.193c-.455.282-.99.422-1.603.422Zm0-1.094c.539 0 .961-.207 1.268-.621.306-.423.46-1.003.46-1.74 0-.73-.154-1.302-.46-1.716-.307-.414-.729-.621-1.268-.621-.538 0-.961.207-1.267.621-.307.415-.46.986-.46 1.716 0 .737.153 1.317.46 1.74.306.414.729.621 1.267.621Zm12.129-2.523c.771.265 1.156.783 1.156 1.554 0 .58-.211 1.044-.634 1.392-.422.34-.99.51-1.702.51h-2.945V10.95h2.87c.663 0 1.193.158 1.591.473.406.306.609.712.609 1.218 0 .315-.083.588-.249.82-.165.232-.397.41-.696.535v.062Zm-2.845-2.076v1.64h1.566c.29 0 .517-.074.683-.223a.747.747 0 0 0 .261-.596.747.747 0 0 0-.261-.597c-.174-.15-.402-.224-.683-.224h-1.566Zm1.64 4.5c.332 0 .592-.087.783-.261.199-.174.298-.406.298-.696 0-.29-.099-.518-.298-.684-.191-.174-.451-.26-.783-.26h-1.64v1.901h1.64Z"/><path fill="#3375F6" d="M12.18 37.891C14.294 40 17.7 40 24.51 40h1.203c6.81 0 10.215 0 12.33-2.109 2.116-2.109 2.116-5.503 2.116-12.291v-1.2c0-6.788 0-10.182-2.116-12.291C35.928 10 32.523 10 25.713 10H24.51c-6.81 0-10.214 0-12.33 2.109-2.115 2.108-2.115 5.503-2.115 12.29v1.2c0 6.79 0 10.183 2.115 12.292Z"/><path fill="#fff" fill-rule="evenodd" d="m33.292 29.95-2.04-.508a.59.59 0 0 1-.428-.546l-.254-7.473c-.074-.99-.811-1.776-1.582-2.008a.104.104 0 0 0-.115.042.087.087 0 0 0 .02.118c.19.146.714.625.714 1.45l-.001 9.772c0 .944-.896 1.636-1.82 1.406l-2.07-.515a.592.592 0 0 1-.398-.539l-.255-7.474c-.073-.989-.81-1.776-1.581-2.007a.104.104 0 0 0-.116.041.087.087 0 0 0 .02.118c.191.147.715.625.715 1.451l-.002 8.145h.002v1.627c0 .944-.896 1.636-1.82 1.406l-5.85-1.455a1.815 1.815 0 0 1-1.383-1.757v-9.787c0-.943.895-1.635 1.819-1.405l3.686.916v-1.764c0-.944.896-1.636 1.82-1.406l3.685.917V16.95c0-.944.896-1.636 1.82-1.406L33.728 17a1.815 1.815 0 0 1 1.383 1.757v9.787c0 .943-.895 1.635-1.82 1.405Z" clip-rule="evenodd"/></svg>