<svg width="27" height="27" viewBox="0 0 27 27" fill="none" xmlns="http://www.w3.org/2000/svg">
<g id="share_outline_24">
<path id="&#226;&#134;&#179; Icon Color" d="M13.1687 4.79388C11.9705 4.87843 11.0248 5.87724 11.0248 7.09695L11.0237 9.37046L11.0017 9.37572C6.13456 10.3841 2.54102 14.697 2.54102 19.7854C2.54102 20.1552 2.55992 20.5236 2.59732 20.889C2.68648 21.7601 3.79543 22.0731 4.32692 21.3772L4.52753 21.1233C6.09468 19.2048 8.3259 17.9463 10.7944 17.6166L11.0237 17.589L11.0248 20.2676C11.0248 20.7837 11.1979 21.2852 11.5164 21.6916C12.303 22.6952 13.7543 22.8711 14.7579 22.0845L23.1597 15.4993C23.306 15.3847 23.4379 15.2527 23.5526 15.1064C24.3392 14.1028 24.1633 12.6515 23.1597 11.8649L14.7579 5.27975C14.3515 4.96119 13.85 4.78809 13.3336 4.78809L13.1687 4.79388ZM13.3336 6.72109C13.4177 6.72109 13.4993 6.74927 13.5655 6.80113L21.9673 13.3863C22.1307 13.5144 22.1593 13.7506 22.0312 13.914C22.0126 13.9378 21.9911 13.9593 21.9673 13.978L13.5655 20.5631C13.4021 20.6912 13.1659 20.6626 13.0378 20.4992C12.9859 20.433 12.9578 20.3514 12.9578 20.2673L12.9567 16.5653C12.9565 16.0254 12.5141 15.5903 11.9743 15.5992L11.7239 15.6033L11.3564 15.621C8.91429 15.7769 6.6348 16.6811 4.78577 18.1617L4.59859 18.316L4.62415 18.1706C5.31447 14.5028 8.31289 11.6141 12.1074 11.1514C12.5923 11.0923 12.9568 10.6807 12.9569 10.1923L12.9578 7.09722C12.9578 6.88937 13.126 6.72109 13.3336 6.72109Z" fill="white"/>
</g>
</svg>
