<svg width="48" height="48" viewBox="0 0 48 48" fill="none" xmlns="http://www.w3.org/2000/svg">
<g id="icon">
<rect width="48" height="48" rx="24" fill="#141414"/>
<path id="&#226;&#134;&#179; Color Foreground" fill-rule="evenodd" clip-rule="evenodd" d="M14.3749 22.8481L25.1148 18.222C30.2292 16.0947 31.2919 15.7252 31.9845 15.713C32.1369 15.7103 32.4775 15.7481 32.6982 15.9271C32.8845 16.0783 32.9357 16.2826 32.9603 16.4258C32.9849 16.5691 33.0154 16.8957 32.9911 17.1508C32.7139 20.0628 31.5147 27.1296 30.9046 30.3911C30.6464 31.7712 30.1385 32.2339 29.6461 32.2792C28.5766 32.3776 27.7645 31.5724 26.7287 30.8934L22.6188 28.1327C20.8005 26.9346 21.9792 26.276 23.0154 25.1998C23.2866 24.918 27.9987 20.632 28.0898 20.2432C28.1009 20.1946 28.1118 20.0134 28.0042 19.9176C27.8965 19.8219 27.7375 19.855 27.6228 19.8807C27.4603 19.9176 24.8709 21.6291 19.8548 25.0151C19.1198 25.5198 18.4541 25.7658 17.8577 25.7529C17.2001 25.7386 15.9353 25.3811 14.995 25.0754C13.8416 24.7005 12.925 24.5023 13.0048 23.8656C13.0464 23.534 13.5031 23.1948 14.3749 22.8481Z" fill="white"/>
</g>
</svg>
